<?xml version="1.0" encoding="utf-8"?>
<!-- Generator: Adobe Illustrator 19.2.1, SVG Export Plug-In . SVG Version: 6.00 Build 0)  -->
<svg version="1.1" xmlns="http://www.w3.org/2000/svg" xmlns:xlink="http://www.w3.org/1999/xlink" x="0px" y="0px" width="210px"
	 height="150px" viewBox="0 0 210 150" style="enable-background:new 0 0 210 150;" xml:space="preserve">
<style type="text/css">
	.st0{fill:url(#path4354_1_);}
	.st1{fill:#969696;}
</style>
<g id="Layer_2">
</g>
<g id="Layer_1">
	<g>
		
			<radialGradient id="path4354_1_" cx="225.0688" cy="108.406" r="105" gradientTransform="matrix(0.9938 -0.9242 -0.864 -0.929 -29.5413 432.2807)" gradientUnits="userSpaceOnUse">
			<stop  offset="0" style="stop-color:#F0F0F0"/>
			<stop  offset="1" style="stop-color:#C8C8C8"/>
		</radialGradient>
		<path id="path4354"  class="st0" d="M64.7,127.1c-0.9-0.3-2.2-0.7-2.8-1
			c-1.3-0.6-2.4-0.5-4.2,0.2c-0.6,0.2-1.5,0.5-2,0.5c-1.7,0.2-5.9-0.5-7.2-1.3c-0.7-0.4-0.7-0.4-1.7,0c-1.3,0.5-1.8,0.5-2.8-0.2
			c-0.7-0.5-0.9-0.5-1.5-0.3c-0.8,0.3-4.6,0.3-4.7,0.1c-0.1-0.1-0.5-0.2-0.9-0.3c-0.5-0.1-1.3-0.4-2-0.7c-0.6-0.3-1.3-0.5-1.5-0.5
			c-0.4,0-1-0.6-1.1-1.2c-0.1-0.3-0.4-0.5-1.2-0.7c-0.6-0.1-1.6-0.5-2.1-0.9c-0.8-0.5-1.3-0.6-2.3-0.6c-1.1,0-1.4-0.1-2.1-0.6
			c-0.6-0.5-0.8-0.7-0.8-1.3c0-0.4,0.2-1,0.4-1.4c0.5-0.8,0.3-1.2-1-2.1c-0.6-0.5-1.1-0.9-1.1-1.1c0-0.2,0.3-0.5,0.8-0.7
			c0.7-0.4,0.7-0.5,0.6-1.1c-0.4-1.9-0.4-2.1,0-2.5c0.7-0.7,1.5-1,2.7-1c1.4,0.1,2.2-0.3,2.9-1.3c0.9-1.4,2.7-1.6,3.8-0.3
			c0.3,0.3,0.7,0.5,1.1,0.5c0.8,0,2.8,0.6,3.6,1.1c0.7,0.4,1.7,0.5,2.2,0.2c0.2-0.1,0.6-0.1,1.1,0.1c0.5,0.2,1,0.3,1.5,0.2
			c1.3-0.3,4.2-0.1,5.2,0.2c0.6,0.2,1.5,0.6,2.1,0.9c1.2,0.6,2.3,0.7,6.6,0.6c1.1,0,1.5,0.1,2.7,0.8c1.4,0.8,1.5,0.8,2.2,0.6
			c0.4-0.2,1.2-0.5,1.6-0.8c1.1-0.7,3.2-0.9,4.8-0.4c1.6,0.5,3.4,1.4,4.1,2c0.5,0.4,0.8,0.5,1.4,0.4c0.4-0.1,1.5-0.2,2.4-0.2
			c1.3,0,1.7-0.1,1.9-0.4c0.1-0.2,0.5-1.1,1-2.1c0.8-1.7,0.8-1.9,0.5-2.8c-0.1-0.5-0.3-1.4-0.2-1.9c0-1,0.7-3.4,1.2-3.9
			c0.1-0.2,0.4-0.6,0.5-0.9c0.1-0.3,0.6-1,1-1.5c1.1-1.3,1.1-1.7,0.4-3.1c-0.5-1.1-0.6-1.4-0.6-3.9c-0.1-3-0.2-3.4-1.1-3
			c-0.6,0.3-2,0.3-3.1,0.1c-0.4-0.1-1-0.5-1.4-0.9c-0.7-0.8-0.8-0.8-2.6-0.8c-1.6,0-2-0.1-2.8-0.6c-0.5-0.3-1.3-0.9-1.6-1.3
			C67.8,85,67.8,85,66.3,85c-1,0-1.7-0.1-2.3-0.4c-0.5-0.2-0.9-0.4-1.1-0.4c-0.3,0-0.6-0.4-1.4-1.7c-0.6-0.9-0.7-1-2.6-1.3
			c-0.5-0.1-1.3-0.3-1.8-0.6c-0.8-0.4-1.1-0.7-1.5-1.7c-0.6-1.3-1.2-1.7-2.2-1.7c-1.5,0-3.4-1.3-3.6-2.5c-0.1-0.4,0-1,0.1-1.3
			c0.2-0.5,0.2-0.6-0.3-0.9c-0.3-0.2-0.9-0.4-1.4-0.5c-0.5-0.1-1.4-0.4-2-0.7c-1.2-0.6-1.6-1.4-1.6-2.9c0-0.4-0.1-0.8-0.2-0.8
			c-3.8-0.4-5.1-0.7-6.2-1.7c-0.8-0.7-0.9-0.8-0.8-1.7l0.1-1l-3.6,0c-3,0-3.9-0.1-5.5-0.5c-2.2-0.6-3.3-1-3.3-1.4
			c0-0.4,0.4-1.5,0.7-2.4c0.5-1.1-0.1-1.6-1.9-1.5c-0.2,0-1.2-0.1-2.2-0.2c-1-0.1-2-0.2-2.2-0.3c-0.5,0-3.6-1.6-4.8-2.4
			c-1.4-1-3.4-2.9-3.6-3.5c-0.1-0.4-0.1-0.7,0.2-1.2c0.8-1.3,1.2-2.3,1.2-2.6c0-0.2-0.6-0.6-1.2-1c-0.7-0.4-1.4-0.8-1.5-1
			C9.6,45.2,9.3,45,9.2,45c-0.4,0-2.7-2.5-3.6-3.8l-0.8-1.1l1.1-1.3c0.6-0.7,1.1-1.4,1.1-1.5c0-0.3-0.6-0.9-1.3-1.1
			c-1.5-0.5-6-6-5.7-7c0.3-0.8,2-1.8,4-2.2c1.7-0.4,2.4-0.4,6.1-0.3c2.3,0.1,5.2,0.2,6.5,0.3c3,0.3,15.9,0.7,23.1,0.7
			c7.2,0,12.2-0.2,16.4-0.6c1.8-0.2,4.2-0.4,5.2-0.4c1.1-0.1,2.3-0.2,2.8-0.2c1.4-0.2,5.4,0.3,5.9,0.6c0.3,0.2,0.6,0.3,0.8,0.3
			c0.4,0,2.2,1.6,2.7,2.5c0.9,1.5,1.2,3.3,1.1,5.9c-0.1,1.3-0.2,3.1-0.4,4.1c-0.6,3.4-0.7,5.8-0.4,7.1c0.2,0.6,0.3,1.4,0.3,1.7
			c0,0.7,0.7,2.4,1.5,3.6c1,1.4,3.4,3.6,5,4.5c0.6,0.3,0.8,0.3,1.4,0.1c0.4-0.1,1.4-0.2,2.3-0.2c0.9,0,1.8-0.1,2.2-0.2
			c0.3-0.1,1-0.9,1.6-1.9c0.6-0.9,1.4-2,1.7-2.5c0.4-0.4,0.7-0.8,0.7-0.9c0-0.1,0.5-0.6,1-1.2c0.6-0.6,1.1-1.4,1.3-2
			c0.2-0.5,0.5-1.3,0.8-1.7c0.3-0.4,0.5-0.8,0.5-0.9c0-0.1,0.3-0.7,0.7-1.2c0.4-0.6,0.7-1.1,0.7-1.2c0-0.1,0.2-0.4,0.4-0.6
			c0.3-0.3,0.4-1,0.5-3.4c0.1-4.5,0.2-4.4-6.1-5.4c-0.9-0.1-2.4-0.4-3.5-0.7c-1.1-0.2-2.2-0.4-2.6-0.3c-1.5,0.2-3.1-1.2-3.1-2.8
			c0.1-1.4,1.4-3.7,2.6-4.5c0.8-0.5,3.7-1,5.8-1c2.8,0,3.9-0.2,5.2-1l1.1-0.7l1.8,0.3c1.8,0.3,3.8,1.1,5.2,2.3
			c0.8,0.7,2.8,1.6,4.4,2.1c1.3,0.4,2.2,1.1,2.2,1.7c0,0.2-0.2,0.6-0.5,0.9c-0.3,0.4-0.5,0.7-0.5,0.9c0,0.1,0.6,0.9,1.3,1.7
			c1.7,1.8,2.9,4.7,3.7,8.3c0.3,1.4,0.6,2.8,0.8,3.3c0.1,0.5,0.4,1.5,0.5,2.3c0.2,0.8,0.4,1.6,0.5,1.7c0.1,0.1,0.4,1.2,0.7,2.3
			c0.7,3.1,1.3,5.2,1.6,5.7c0.3,0.5,0.5,0.5,2,0.5c3,0,3.9,0.2,4.5,0.8c0.7,0.7,1.1,0.7,2.7-0.2c1.2-0.7,4.4-3.8,4.4-4.2
			c0-0.1,0.2-0.6,0.5-1.1c0.7-1.1,1.1-2.5,1.2-3.7c0-0.5,0.1-1.1,0.2-1.3c0.3-0.8,0.3-1.4,0.1-2.5c-0.3-1.6-0.7-5-0.6-6.4
			c0-1.4,0.9-4.5,1.7-5.8c1.1-1.9,3.1-3.6,5.2-4.4c0.3-0.1,1.2-0.3,2-0.4c0.8-0.1,2.2-0.3,3.1-0.4c1.3-0.2,2.1-0.2,5,0.2
			c3.6,0.5,5.2,0.7,10.1,1.2c1.7,0.2,3.8,0.4,4.8,0.5c0.9,0.1,3,0.2,4.6,0.2c1.6,0,3.7,0.1,4.8,0.2c2.5,0.3,16,0.4,19.7,0.1
			c1.6-0.1,3.9-0.3,5.2-0.4c4.4-0.5,6.6-0.2,9.3,1.2c1.9,1,2.6,1.7,2.4,2.4c-0.2,0.7-3.8,3.5-5.9,4.6c-1.8,1-2.1,1.5-1.3,2.3
			c0.5,0.4,1.5,2.3,1.5,2.8c0,0.4-1.2,1.5-2.1,2c-0.4,0.2-0.9,0.5-1.1,0.6c-0.4,0.3-2.8,1.6-3,1.6c-0.3,0-1.7,1-1.7,1.1
			c0,0.1,0.3,0.6,0.8,1.1c0.4,0.5,1,1.3,1.3,1.7c0.3,0.4,0.7,1,0.9,1.3c0.6,0.9,0.3,1.4-1.6,2.7c-1.8,1.2-4.3,2.5-4.9,2.5
			c-0.2,0-0.8,0.2-1.4,0.4c-0.6,0.2-1.8,0.5-2.7,0.6c-1,0.1-1.8,0.3-2.1,0.5c-0.4,0.4-0.4,0.4-0.1,1.1c0.5,1,0.7,2.5,0.3,3.1
			c-0.3,0.6-3.5,2.1-5.3,2.5c-2.1,0.5-4.7,0.7-7.9,0.7c-1.7,0-2.9,0.1-2.9,0.2c-0.1,0.1,0,0.9,0.1,1.6c0.2,1.2,0.2,1.4-0.1,1.8
			c-0.2,0.2-0.8,0.5-1.2,0.6c-0.5,0.1-1.4,0.3-2.1,0.5c-0.7,0.2-2.1,0.4-3.7,0.4c-3.2,0-3,0-3.4,0.7c-0.7,1.5-2.2,2.5-3.8,2.7
			c-1.2,0.2-1.3,0.2-1.8,1.5c-0.3,0.6-0.8,1.2-1.1,1.5c-0.8,0.5-3.4,1-4.7,1c-1,0-2,0.6-2,1.2c0,0.2-0.2,0.6-0.5,0.9
			c-0.6,0.7-2.2,1.1-3.7,1c-0.8-0.1-0.9,0-1.2,0.4c-0.2,0.3-0.3,0.6-0.2,0.7c0.1,0.4-1.1,2.1-1.6,2.4c-0.6,0.3-1.8,0.3-3.2,0
			c-0.5-0.1-1.1-0.2-1.2-0.1c-0.2,0.1-0.6,0.7-1.1,1.5c-0.9,1.6-1.5,1.9-3.1,1.8c-0.9-0.1-1.1,0-1.5,0.3c-0.2,0.2-0.4,0.5-0.4,0.6
			c0,0.1-0.4,0.4-0.9,0.7c-1,0.6-2.7,0.8-3.9,0.3c-0.5-0.2-0.8-0.2-1,0c-0.5,0.4-0.4,1.1,0.5,2.4c1.3,1.8,2.1,5.3,2.3,9.3
			c0.1,1.4,0.2,2.5,0.5,3.1c1.9,4.9,2.5,7.4,2,9.5c-0.1,0.6-0.5,1.3-0.8,1.6c-0.6,0.6-0.6,0.9-0.1,1.4c0.5,0.4,1,0.5,3.5,0.1
			c3.8-0.5,6.4-0.8,6.9-0.7c0.3,0,1.5-0.1,2.6-0.3c1.1-0.2,2.2-0.3,2.3-0.2c0.1,0.1,0.8,0,1.6-0.1c0.7-0.1,1.7-0.2,2.2-0.3
			c4.2-0.5,6.6-0.7,7.2-0.7c0.4,0,1-0.1,1.4-0.1c0.3-0.1,1.1-0.2,1.6-0.3c1.2-0.2,1.3-0.3,1.3-1.4c-0.1-1.1,0.3-1.2,2.3-0.7
			c0.9,0.2,1.7,0.4,1.8,0.4c0.1,0,0.4,0.1,0.7,0.3c0.2,0.1,1.2,0.3,2,0.4c1.7,0.2,2.5-0.1,2.5-0.8c0-0.6,0.6-1,0.9-0.7
			c0.6,0.5,3.2,1.2,5.2,1.3c1.6,0.1,2.4,0.3,4.1,1c2.1,0.8,2.1,0.9,2.2,1.6c0.1,1.5,0.2,1.7,0.9,1.7c0.3,0,0.9,0.2,1.4,0.4
			c0.4,0.2,1.1,0.4,1.5,0.4c0.8,0,1.2,0.3,1.2,0.9c0,0.4-0.8,0.7-2.7,1c-1,0.2-1.5,0.4-2,0.9c-0.4,0.4-1.3,0.8-2.5,1.2
			c-1,0.3-2,0.8-2.3,1.1c-0.6,0.5-2.2,1.2-3,1.2c-0.3,0-0.8,0.2-1.1,0.4c-0.3,0.2-0.8,0.4-1.1,0.4c-0.3,0-0.6,0.1-0.7,0.2
			c-0.2,0.3-1,0.3-1.8-0.1c-0.9-0.5-4-0.5-5,0c-0.9,0.4-2,0.5-2.1,0.2c-0.2-0.3-1.4-0.9-2-1c-0.3,0-4.3-0.1-8.8-0.2
			c-9.8-0.2-12.4-0.2-18.1-0.4l-4.3-0.2l-0.7,0.6c-0.8,0.6-1.5,0.7-2.9,0.3c-0.9-0.2-1-0.2-1.5,0.2c-0.6,0.5-1.8,0.6-2.9,0.2
			c-0.6-0.2-0.8-0.2-1.6,0.3c-0.9,0.4-1,0.5-1.8,0.2c-0.4-0.2-1.1-0.6-1.5-0.9c-0.6-0.5-0.8-0.6-1.3-0.5c-0.3,0.1-1,0.2-1.6,0.3
			c-0.5,0.1-1.4,0.3-1.9,0.5c-0.8,0.3-2,0.4-6.3,0.7c-0.7,0-1.5,0.2-1.7,0.3c-0.6,0.3-1.8,0.3-2.1,0c-0.1-0.1-1.2-0.3-2.4-0.4
			c-1.9-0.2-2.5-0.3-4.2-1.1c-2.2-1-2.6-1-3-0.6c-0.8,0.9-3,1.3-4.6,0.7c-0.6-0.2-0.8-0.2-1.4,0.1c-0.5,0.3-1.1,0.4-2.6,0.4
			c-3.5,0-5.4,0.2-5.8,0.6c-0.4,0.5-1.8,0.6-2.8,0.2c-0.4-0.2-0.9-0.1-1.9,0.2C69.3,127.6,66.7,127.7,64.7,127.1L64.7,127.1z"/>
		<g id="g3092" transform="matrix(0.96213751,0,0,0.97809999,-244.84252,-212.02489)">
			<path id="path3094" class="st1" d="M321.7,346.7c-1-0.3-2.3-0.7-2.9-1
				c-1.3-0.6-2.5-0.5-4.4,0.2c-0.6,0.2-1.6,0.5-2.1,0.6c-1.7,0.2-6.2-0.5-7.5-1.3c-0.7-0.4-0.7-0.4-1.8,0c-1.4,0.5-1.9,0.5-2.9-0.2
				c-0.8-0.5-1-0.5-1.6-0.3c-0.8,0.3-4.8,0.3-4.9,0.1c-0.1-0.1-0.5-0.3-1-0.3c-0.5-0.1-1.4-0.4-2-0.7c-0.7-0.3-1.3-0.6-1.5-0.6
				c-0.4,0-1-0.6-1.1-1.2c-0.1-0.3-0.4-0.5-1.2-0.7c-0.6-0.1-1.6-0.5-2.2-0.9c-0.8-0.5-1.4-0.6-2.4-0.6c-1.1,0-1.5-0.1-2.2-0.6
				c-0.7-0.5-0.8-0.8-0.8-1.4c0-0.4,0.2-1,0.4-1.4c0.5-0.8,0.3-1.2-1-2.2c-0.6-0.5-1.1-1-1.1-1.1c0-0.2,0.3-0.5,0.8-0.8
				c0.7-0.4,0.8-0.5,0.7-1.2c-0.4-1.9-0.4-2.1,0-2.6c0.7-0.8,1.5-1.1,2.8-1c1.4,0.1,2.3-0.3,3-1.4c1-1.5,2.8-1.6,4-0.3
				c0.3,0.3,0.7,0.5,1.1,0.5c0.9,0,2.9,0.6,3.7,1.1c0.7,0.4,1.8,0.5,2.3,0.2c0.2-0.1,0.6-0.1,1.1,0.1c0.5,0.2,1.1,0.3,1.6,0.2
				c1.4-0.3,4.3-0.1,5.5,0.3c0.6,0.2,1.6,0.6,2.2,0.9c1.2,0.6,2.4,0.7,6.9,0.7c1.2,0,1.5,0.1,2.8,0.8c1.5,0.8,1.6,0.8,2.3,0.6
				c0.4-0.2,1.2-0.5,1.7-0.9c1.2-0.7,3.3-0.9,5-0.4c1.6,0.5,3.5,1.4,4.3,2.1c0.5,0.4,0.8,0.5,1.4,0.4c0.4-0.1,1.6-0.2,2.5-0.2
				c1.3,0,1.8-0.1,1.9-0.4c0.1-0.2,0.5-1.2,1-2.2c0.8-1.8,0.8-1.9,0.5-2.9c-0.2-0.6-0.3-1.4-0.3-2c0-1,0.8-3.4,1.2-4
				c0.1-0.2,0.4-0.6,0.5-0.9c0.1-0.3,0.6-1,1-1.5c1.1-1.3,1.2-1.7,0.5-3.2c-0.5-1.1-0.6-1.5-0.6-4c-0.1-3.1-0.2-3.5-1.1-3.1
				c-0.6,0.3-2.1,0.3-3.2,0.1c-0.4-0.1-1.1-0.5-1.5-0.9c-0.8-0.8-0.8-0.8-2.7-0.8c-1.7,0-2-0.1-2.9-0.6c-0.5-0.3-1.3-0.9-1.7-1.4
				c-0.7-0.8-0.8-0.8-2.2-0.8c-1.1,0-1.8-0.1-2.4-0.4c-0.5-0.2-1-0.4-1.1-0.4c-0.3,0-0.7-0.4-1.5-1.7c-0.6-0.9-0.7-1-2.7-1.3
				c-0.5-0.1-1.3-0.4-1.9-0.6c-0.8-0.4-1.1-0.7-1.6-1.7c-0.6-1.3-1.2-1.8-2.3-1.8c-1.5,0-3.5-1.3-3.7-2.5c-0.1-0.4,0-1,0.1-1.3
				c0.2-0.5,0.2-0.6-0.3-0.9c-0.3-0.2-0.9-0.4-1.5-0.5c-0.5-0.1-1.5-0.4-2.1-0.8c-1.2-0.7-1.6-1.4-1.6-3c0-0.5-0.1-0.8-0.2-0.8
				c-4-0.4-5.3-0.7-6.5-1.7c-0.8-0.7-0.9-0.8-0.8-1.8l0.1-1l-3.8,0c-3.1,0-4.1-0.1-5.7-0.5c-2.3-0.6-3.4-1.1-3.4-1.5
				c0-0.4,0.4-1.6,0.8-2.4c0.5-1.2-0.1-1.6-2-1.5c-0.2,0-1.3-0.1-2.3-0.2s-2.1-0.3-2.3-0.3c-0.6,0-3.7-1.6-5-2.5
				c-1.5-1-3.5-3-3.7-3.6c-0.2-0.4-0.1-0.8,0.2-1.3c0.8-1.4,1.3-2.3,1.3-2.6c0-0.2-0.6-0.6-1.3-1c-0.7-0.4-1.4-0.8-1.6-1
				s-0.4-0.3-0.5-0.3c-0.4,0-2.8-2.6-3.7-3.9l-0.8-1.1l1.1-1.3c0.6-0.7,1.1-1.4,1.1-1.5c0-0.3-0.7-0.9-1.3-1.1
				c-1.6-0.5-6.2-6.1-5.9-7.1c0.3-0.8,2.1-1.8,4.2-2.3c1.8-0.4,2.5-0.4,6.3-0.3c2.4,0.1,5.4,0.2,6.7,0.4c3.2,0.3,16.5,0.7,24,0.7
				c7.5,0,12.7-0.2,17-0.6c1.9-0.2,4.3-0.4,5.4-0.4c1.1-0.1,2.4-0.2,2.9-0.2c1.5-0.2,5.6,0.3,6.2,0.7c0.3,0.2,0.7,0.3,0.8,0.3
				c0.4,0,2.2,1.6,2.8,2.5c0.9,1.5,1.3,3.4,1.2,6c-0.1,1.3-0.2,3.2-0.4,4.2c-0.6,3.5-0.8,5.9-0.4,7.2c0.2,0.6,0.3,1.4,0.3,1.8
				c0,0.7,0.7,2.4,1.6,3.7c1,1.5,3.6,3.7,5.2,4.6c0.6,0.3,0.9,0.3,1.4,0.1c0.4-0.1,1.5-0.2,2.4-0.2s1.9-0.1,2.2-0.2
				c0.4-0.1,1-0.9,1.7-2c0.6-1,1.4-2.1,1.8-2.5c0.4-0.4,0.7-0.9,0.7-0.9s0.5-0.6,1.1-1.2c0.6-0.6,1.2-1.5,1.4-2.1
				c0.2-0.5,0.5-1.3,0.8-1.7c0.3-0.4,0.5-0.8,0.5-0.9s0.3-0.7,0.8-1.3c0.4-0.6,0.8-1.2,0.8-1.3c0-0.1,0.2-0.4,0.4-0.6
				c0.3-0.3,0.4-1,0.5-3.5c0.1-4.6,0.3-4.5-6.4-5.5c-0.9-0.1-2.5-0.5-3.6-0.7c-1.1-0.3-2.3-0.4-2.7-0.3c-1.6,0.3-3.2-1.2-3.2-2.8
				c0.1-1.4,1.4-3.8,2.7-4.6c0.9-0.5,3.8-1,6-1c2.9,0,4-0.2,5.4-1.1l1.2-0.8l1.8,0.3c1.9,0.3,3.9,1.2,5.4,2.3
				c0.9,0.7,2.9,1.7,4.5,2.2c1.4,0.4,2.2,1.1,2.2,1.8c0,0.2-0.2,0.6-0.6,0.9c-0.3,0.4-0.6,0.8-0.6,0.9c0,0.1,0.6,0.9,1.4,1.7
				c1.7,1.9,3,4.8,3.8,8.5c0.3,1.4,0.6,2.9,0.8,3.4c0.1,0.5,0.4,1.6,0.6,2.4c0.2,0.8,0.4,1.6,0.5,1.8c0.1,0.1,0.4,1.2,0.7,2.4
				c0.7,3.2,1.3,5.3,1.7,5.9c0.3,0.5,0.5,0.5,2,0.5c3.1,0,4.1,0.2,4.7,0.8c0.8,0.7,1.2,0.7,2.8-0.2c1.3-0.8,4.5-3.8,4.5-4.3
				c0-0.1,0.2-0.6,0.6-1.1c0.7-1.1,1.2-2.5,1.3-3.8c0-0.5,0.1-1.1,0.2-1.3c0.3-0.8,0.3-1.5,0.1-2.5c-0.3-1.6-0.7-5.1-0.7-6.5
				c0-1.4,0.9-4.6,1.7-6c1.1-2,3.2-3.7,5.4-4.5c0.3-0.1,1.2-0.3,2.1-0.4s2.3-0.3,3.2-0.4c1.4-0.2,2.2-0.2,5.2,0.2
				c3.8,0.5,5.4,0.7,10.5,1.2c1.8,0.2,4,0.4,5,0.5c1,0.1,3.1,0.2,4.8,0.2s3.9,0.1,5,0.2c2.6,0.3,16.6,0.4,20.4,0.2
				c1.6-0.1,4.1-0.3,5.4-0.4c4.6-0.5,6.9-0.2,9.7,1.3c1.9,1,2.7,1.8,2.5,2.5c-0.2,0.7-3.9,3.6-6.1,4.7c-1.9,1-2.2,1.5-1.3,2.3
				c0.5,0.5,1.6,2.4,1.6,2.9c0,0.4-1.2,1.6-2.2,2.1c-0.4,0.2-0.9,0.5-1.1,0.7c-0.4,0.4-2.9,1.6-3.1,1.6c-0.3,0-1.7,1-1.8,1.2
				c0,0.1,0.4,0.6,0.8,1.1c0.5,0.5,1.1,1.3,1.4,1.7c0.3,0.4,0.7,1,1,1.4c0.7,0.9,0.3,1.4-1.7,2.7c-1.9,1.2-4.5,2.6-5,2.6
				c-0.2,0-0.8,0.2-1.4,0.4c-0.6,0.2-1.9,0.5-2.8,0.6c-1.1,0.1-1.9,0.3-2.2,0.5c-0.5,0.4-0.5,0.4-0.1,1.1c0.5,1,0.7,2.5,0.4,3.1
				c-0.4,0.7-3.6,2.2-5.5,2.6c-2.2,0.5-4.9,0.7-8.2,0.7c-1.8,0-3,0.1-3.1,0.3c-0.1,0.1,0,0.9,0.1,1.7c0.2,1.3,0.2,1.5-0.1,1.8
				c-0.2,0.2-0.8,0.5-1.3,0.6s-1.5,0.3-2.1,0.5c-0.8,0.2-2.2,0.4-3.9,0.4c-3.3,0-3.1,0-3.5,0.8c-0.8,1.5-2.2,2.5-4,2.8
				c-1.2,0.2-1.3,0.2-1.9,1.5c-0.3,0.6-0.8,1.3-1.2,1.5c-0.8,0.5-3.5,1.1-4.8,1.1c-1,0-2.1,0.6-2.1,1.2c0,0.2-0.2,0.6-0.5,0.9
				c-0.6,0.7-2.2,1.2-3.8,1c-0.8-0.1-1,0-1.2,0.4c-0.2,0.3-0.3,0.6-0.2,0.7c0.1,0.4-1.1,2.1-1.7,2.4c-0.7,0.3-1.9,0.3-3.3,0
				c-0.5-0.1-1.1-0.2-1.3-0.1c-0.2,0.1-0.7,0.7-1.1,1.5c-1,1.6-1.6,2-3.2,1.8c-0.9-0.1-1.2,0-1.5,0.3c-0.2,0.2-0.4,0.5-0.4,0.6
				s-0.4,0.4-1,0.7c-1.1,0.6-2.8,0.8-4.1,0.3c-0.5-0.2-0.8-0.2-1,0c-0.5,0.4-0.4,1.2,0.5,2.4c1.3,1.9,2.2,5.4,2.4,9.5
				c0.1,1.4,0.2,2.5,0.5,3.2c2,5,2.5,7.6,2,9.7c-0.1,0.6-0.5,1.3-0.8,1.6c-0.7,0.6-0.7,0.9-0.1,1.4c0.5,0.4,1.1,0.5,3.6,0.1
				c4-0.5,6.7-0.8,7.2-0.7c0.3,0,1.5-0.1,2.7-0.3c1.2-0.2,2.3-0.3,2.4-0.3c0.1,0.1,0.9,0,1.6-0.1s1.8-0.2,2.3-0.3
				c4.3-0.5,6.8-0.7,7.5-0.7c0.4,0,1.1-0.1,1.4-0.1c0.4-0.1,1.1-0.2,1.7-0.3c1.2-0.2,1.4-0.3,1.3-1.5c-0.1-1.1,0.3-1.2,2.4-0.7
				c0.9,0.2,1.8,0.4,1.9,0.4s0.4,0.1,0.7,0.3c0.3,0.1,1.2,0.3,2.1,0.4c1.8,0.2,2.6-0.1,2.6-0.8c0-0.6,0.6-1,1-0.7
				c0.6,0.5,3.4,1.2,5.4,1.3c1.7,0.1,2.5,0.3,4.3,1c2.2,0.9,2.2,0.9,2.3,1.6c0.1,1.5,0.2,1.8,0.9,1.8c0.3,0,1,0.2,1.4,0.4
				c0.5,0.2,1.2,0.4,1.6,0.4c0.8,0,1.3,0.3,1.3,0.9c0,0.4-0.8,0.7-2.9,1.1c-1.1,0.2-1.6,0.4-2.1,0.9c-0.4,0.4-1.3,0.9-2.6,1.3
				c-1,0.3-2.1,0.8-2.4,1.1c-0.6,0.6-2.2,1.2-3.1,1.2c-0.3,0-0.8,0.2-1.1,0.4c-0.3,0.2-0.8,0.4-1.1,0.4c-0.3,0-0.7,0.1-0.7,0.2
				c-0.2,0.3-1.1,0.3-1.8-0.1c-1-0.5-4.1-0.5-5.2,0c-0.9,0.4-2,0.5-2.2,0.2c-0.2-0.3-1.5-0.9-2.1-1c-0.3,0-4.4-0.1-9.2-0.2
				c-10.2-0.2-12.9-0.2-18.8-0.4l-4.4-0.2l-0.8,0.6c-0.8,0.6-1.5,0.7-3,0.3c-0.9-0.2-1-0.2-1.5,0.2c-0.6,0.5-1.8,0.6-3,0.2
				c-0.6-0.2-0.8-0.2-1.7,0.3c-0.9,0.5-1.1,0.5-1.8,0.2c-0.5-0.2-1.1-0.6-1.5-1c-0.6-0.5-0.8-0.6-1.3-0.5c-0.3,0.1-1.1,0.2-1.6,0.3
				c-0.5,0.1-1.4,0.3-2,0.5c-0.9,0.3-2,0.4-6.6,0.7c-0.7,0-1.6,0.2-1.8,0.3c-0.6,0.3-1.9,0.3-2.2,0c-0.1-0.1-1.3-0.3-2.5-0.4
				c-2-0.2-2.6-0.3-4.4-1.1c-2.3-1-2.7-1.1-3.1-0.6c-0.8,0.9-3.2,1.3-4.8,0.7c-0.6-0.2-0.8-0.2-1.4,0.1c-0.5,0.3-1.1,0.4-2.7,0.4
				c-3.6,0-5.6,0.2-6,0.7c-0.4,0.5-1.9,0.6-2.9,0.2c-0.4-0.2-0.9-0.1-2,0.2C326.5,347.3,323.8,347.3,321.7,346.7L321.7,346.7z
				 M328.9,345.2c0.9-0.7,1.4-1.6,1-1.9c-0.3-0.3-1.2-0.3-1.9,0.1c-0.3,0.2-1.3,0.5-2.1,0.6c-0.9,0.2-1.9,0.4-2.2,0.6
				c-0.8,0.3-1.4,0.2-1.4-0.3c0-0.3,1.3-0.9,2.6-1.2c1.2-0.2,0.7-0.6-1.1-0.9c-2-0.4-2.5-0.2-3.8,1.1l-0.8,0.9l0.5,0.5
				c0.8,0.9,2.7,1.2,6,1.1C327.9,345.7,328.3,345.6,328.9,345.2L328.9,345.2z M332.8,345.3c0.6-0.4,0.6-0.9,0-1.6
				c-0.6-0.6-1-0.6-1.5-0.1c-0.5,0.5-0.5,0.8,0.1,1.5C331.9,345.8,332.1,345.8,332.8,345.3z M313,345.1c1.2-0.2,1.8-0.7,1.8-1.4
				c0-1.1-0.9-1.2-3.8-0.4c-3.3,0.8-3.5,0.9-3.5,1.1c0,0.4,1.4,0.8,2.6,0.8c0.7,0,1.3,0.1,1.3,0.1c0.1,0.1,0.3,0.1,0.5,0
				S312.5,345.2,313,345.1z M356.1,344.7c0.5-0.5,0.5-0.8,0-1.2c-1.1-0.9-6.1-2.2-6.9-1.7c-0.9,0.5-0.4,1.3,0.7,1.3
				c0.3,0,0.9,0.2,1.2,0.4c0.7,0.4,2.5,1.1,3.6,1.4c0.4,0.1,0.8,0.2,0.9,0.2S355.9,344.9,356.1,344.7L356.1,344.7z M376.5,344.7
				c0-0.1-0.2-0.3-0.5-0.3c-0.5-0.1-0.7,0.2-0.3,0.5C375.9,345.1,376.5,345,376.5,344.7L376.5,344.7z M336.6,344.5
				c0.3-0.4,0.1-0.6-0.9-0.6c-0.9,0-1.1,0.3-0.5,0.6C335.8,344.9,336.3,344.9,336.6,344.5L336.6,344.5z M302.6,343.6
				c0.2-0.5,0.1-0.7-0.2-1.1c-0.4-0.4-0.5-0.4-1-0.1c-1,0.6-0.6,2,0.5,1.9C302.3,344.3,302.5,344.1,302.6,343.6L302.6,343.6z
				 M341.6,344.1c0.2-0.4-0.3-0.6-1.1-0.5c-0.9,0.1-1.1,0.2-0.9,0.5C339.8,344.4,341.4,344.4,341.6,344.1z M422.2,344
				c0.4-0.2,0.1-1-0.4-1.1c-0.6-0.2-2.3,0.3-2.3,0.6c0,0.1,0,0.3,0,0.4C419.5,344.3,421.6,344.4,422.2,344L422.2,344z M345.8,343.9
				c-0.4-0.4-1.5-0.4-1.3,0c0.1,0.1,0.4,0.2,0.8,0.2C345.7,344.1,345.9,344.1,345.8,343.9L345.8,343.9z M363.7,343.3
				c0.6-0.6,0.6-1.3,0.1-1.4c-1.2-0.1-2.1,0.5-2.1,1.5C361.6,344.2,362.9,344.1,363.7,343.3L363.7,343.3z M429.7,343.6
				c0.3-0.2,0.3-0.5-0.3-1c-0.6-0.6-2.2-0.6-2.6-0.1c-0.2,0.2-0.2,0.4-0.1,0.4c0.1,0,0.5,0.3,0.9,0.5
				C428.2,343.8,429.2,343.9,429.7,343.6z M298.1,343.2c1.1-0.3,3.1-2.1,2.9-2.7c-0.2-0.5-1-0.4-2.7,0.2c-3.3,1.2-5.1,1.6-5.7,1.3
				c-0.5-0.2-1.2-0.2-1.2,0.2c0,0.5,1.3,1,3.6,1.4C295.6,343.7,297,343.5,298.1,343.2z M317.9,343.3c0.5-0.6,0.4-1.4-0.4-1.8
				c-0.5-0.3-0.7-0.3-1.2,0c-0.8,0.5-0.9,0.9-0.4,1.6C316.4,343.8,317.4,343.9,317.9,343.3z M414.6,343.4c0.4-0.3,0.4-0.3-0.2-0.4
				c-1.1-0.3-18.4,0-18.5,0.3c-0.1,0.2,0.9,0.3,3.6,0.2c2,0,3.7,0,3.8,0.1s2.5,0.1,5.5,0.1C413.1,343.7,414.2,343.6,414.6,343.4
				L414.6,343.4z M432.5,343.5c0.5-0.3,0.1-0.9-0.7-0.9c-0.9,0-1.1,0.2-0.8,0.7C431.3,343.7,432,343.8,432.5,343.5L432.5,343.5z
				 M307.1,343.3c0.4-0.1,1.6-0.5,2.7-0.8c2.7-0.8,2.5-1.3-0.4-1.4c-0.9,0-1.5,0.1-2.3,0.5c-1.2,0.6-2.1,1.3-2.1,1.7
				C305,343.5,306.2,343.5,307.1,343.3L307.1,343.3z M361.2,342.5c0-0.8-0.5-1.4-0.9-1.1c-0.4,0.2-0.3,1.6,0.2,1.9
				C361,343.5,361.2,343.3,361.2,342.5z M366,342.9c0.2-0.3,0.2-0.4,0-0.7c-0.2-0.2-0.4-0.3-0.6-0.3c-0.4,0-1,0.6-1,1
				C364.5,343.4,365.7,343.4,366,342.9z M367.7,342.8c0.4-0.3,0.3-1-0.1-1c-0.5,0-1.2,0.8-1.1,1.2
				C366.7,343.3,367.2,343.2,367.7,342.8L367.7,342.8z M376.8,342.6c0.3-0.5,0.4-1.1,0.4-2.4c0-1.6,0-1.8-0.5-2.2
				c-0.8-0.6-2.4-0.6-2.7-0.1c-0.2,0.4-0.3,1.6-0.3,3.2C373.8,343,376,344,376.8,342.6z M393.7,343.1c0-0.1-0.9-0.2-2-0.2
				c-1.4,0-1.9,0-1.7,0.2C390.3,343.3,393.7,343.3,393.7,343.1z M337.2,342.5c0.5-0.5,0.5-0.7,0.5-3.3v-2.7l-0.8-0.4
				c-0.8-0.3-0.9-0.4-1.6-0.1c-0.9,0.4-1.3,0.9-1.3,1.9c0,0.4-0.1,0.9-0.2,1.2c-0.1,0.3-0.1,1,0,1.8c0.2,1.1,0.3,1.3,0.9,1.7
				C335.7,343.2,336.5,343.2,337.2,342.5z M370.1,342.4c0.2-0.5,0.3-0.7,0.1-0.9c-0.6-0.6-1.5-0.1-1.5,0.9
				C368.7,343.3,369.6,343.3,370.1,342.4L370.1,342.4z M381.6,342.5c0.3-0.4,0.3-0.9,0.2-2.5c-0.1-1.1-0.2-2.1-0.3-2.3
				c-0.2-0.4-2.5-0.4-2.9,0c-0.2,0.2-0.3,1-0.3,2.4c0,2.6,0.3,3,1.9,3C381.1,343,381.3,342.9,381.6,342.5L381.6,342.5z M386.2,342.3
				c0.4-0.6,0.6-1,0.6-1.9c0-2.3-0.5-3.1-1.9-3.4c-1.8-0.3-2.3,0.7-1.9,3.7c0.3,2,0.5,2.3,1.9,2.3
				C385.5,343,385.8,342.9,386.2,342.3L386.2,342.3z M341.5,342.4c0.8-0.3,0.8-0.4,1-3.5c0.1-2.6,0-2.9-1.4-2.9
				c-1.2,0-2.2,0.7-2.3,1.5c-0.2,3.8,0,4.8,0.7,5C340.1,342.6,340.8,342.6,341.5,342.4L341.5,342.4z M347.2,342
				c0.4-0.5,0.5-0.9,0.5-2.7c0-1.1-0.1-2.3-0.2-2.5c-0.5-0.9-2.8-1.1-3.5-0.4c-0.4,0.4-0.4,0.6-0.3,2.6c0.1,1.2,0.2,2.4,0.2,2.7
				c0.1,0.6,0.8,0.9,2,0.9C346.6,342.6,346.9,342.5,347.2,342L347.2,342z M359.4,341.5c0-0.8-0.5-0.8-0.6,0.1c0,0.4,0,0.6,0.3,0.6
				C359.3,342.2,359.4,341.9,359.4,341.5z M373,341.7c0-0.4-1.4-0.6-1.7-0.3c-0.4,0.4,0.1,0.7,0.9,0.7
				C372.7,342.1,373,341.9,373,341.7z M403.3,341.9c6.2,0,11.6-0.1,12-0.1c0.6-0.1,0.7-0.2,0.7-0.6c0-0.7-0.8-0.8-3.5-0.5
				c-1.2,0.1-4,0.2-6.3,0.3c-2.3,0.1-5.6,0.2-7.3,0.2s-4.7,0.1-6.7,0.1c-3,0-3.6,0.1-3.6,0.3c0,0.2,0.4,0.3,1.6,0.4
				c0.9,0,1.7,0,1.7,0C392,342,397.1,341.9,403.3,341.9L403.3,341.9z M320.3,341.5c0.2-0.4,0.1-0.5-0.3-0.8
				c-0.6-0.4-1.2-0.3-1.2,0.1c0,0.3,0.8,1.1,1.1,1.1C319.9,341.9,320.1,341.7,320.3,341.5L320.3,341.5z M355.6,341.1
				c-0.1-0.9-1.6-1.6-4.2-1.7c-2.3-0.1-2.9,0.1-2.5,0.7c0.2,0.3,0.7,0.4,1.8,0.6c0.9,0.1,1.8,0.3,2,0.4c0.2,0.1,0.6,0.2,0.8,0.2
				c0.2,0,0.7,0.1,1,0.3C355.3,342,355.7,341.8,355.6,341.1L355.6,341.1z M424.6,341.6c0.5-0.5,0.5-0.9-0.1-1.3
				c-0.4-0.2-0.9-0.3-2.1-0.1c-0.9,0.1-1.7,0.2-1.8,0.3c-0.2,0.2,0.5,0.8,1.5,1.1C423.5,342,424.2,342,424.6,341.6L424.6,341.6z
				 M306.1,340.9c0.8-0.6,0.9-0.9,0.5-1.3c-0.6-0.6-0.9-0.4-1.2,0.5c-0.1,0.5-0.4,0.9-0.5,1C304.3,341.8,305.2,341.7,306.1,340.9z
				 M418.5,341.5c0.2-0.3-0.4-0.5-0.9-0.4c-0.4,0.2-0.2,0.6,0.3,0.6C418.2,341.7,418.5,341.6,418.5,341.5z M436.3,341.5
				c0.4-0.4,0.1-0.9-0.6-0.9c-0.7,0-1,0.3-0.8,0.8C435,341.8,435.9,341.8,436.3,341.5L436.3,341.5z M329.7,341.1
				c0.8-0.1,2-1.1,1.8-1.4c-0.1-0.2-1.4-0.2-4.1-0.2c-4.1,0-5.2-0.2-5.1-0.8c0.1-0.3,0.5-0.4,4.9-0.3c4.2,0.1,4.8,0,4.8-0.3
				c0-1.3-6.2-2.1-10.4-1.4c-2.3,0.4-2.7,0.6-2.6,1.5C319.2,340.3,325.2,341.9,329.7,341.1L329.7,341.1z M304.2,340.6
				c0.8-0.7,0.2-2.3-0.9-2.3c-1.5,0-1.9,2.1-0.4,2.6C303.4,341.2,303.6,341.2,304.2,340.6L304.2,340.6z M291.1,340.7
				c0.4-0.3,0.5-1.7,0.1-2.1c-0.1-0.1-0.5-0.3-0.9-0.3c-0.5,0-0.7,0.2-1,0.8c-0.4,0.8-0.2,1.3,0.7,1.7
				C290.7,341.1,290.7,341.1,291.1,340.7L291.1,340.7z M294.7,340.6c1.6-0.5,2.5-0.9,2.5-1.1c0-0.3-2.5-0.7-3.3-0.5
				c-0.8,0.2-1.5,1.1-1.3,1.7C292.9,341.1,293.1,341.1,294.7,340.6L294.7,340.6z M431.6,340.3c0.4-0.6,0.4-0.7-0.1-1.3
				c-0.4-0.4-0.7-0.4-2.4-0.4c-1.1,0-2,0.1-2.1,0.1c-0.2,0.2,0.3,0.7,0.8,0.7c0.4,0,0.8,0.1,2.3,0.9
				C430.9,340.9,431.2,340.9,431.6,340.3z M366.5,340.2c0.4-0.3-0.2-0.5-1.3-0.5c-1.2,0-1.6,0.2-1.3,0.7
				C364.1,340.6,366.1,340.5,366.5,340.2z M397.3,340.3c2.7-0.1,5.6-0.2,6.4-0.2c9.1-0.3,12-0.4,12.6-0.1c0.5,0.2,1.2,0.1,2.9-0.1
				c1.3-0.2,2.3-0.5,2.3-0.5c0-0.4-4.7-0.6-8.2-0.3c-3.6,0.3-4.7,0.3-14.7,0.5c-5.3,0.1-10,0.2-10.2,0.2c-0.5,0.1-0.7,0.7-0.2,0.8
				c0.2,0.1,1.2,0.1,2.3,0C391.5,340.4,394.6,340.3,397.3,340.3L397.3,340.3z M316.3,340c1.4-0.4,1.6-0.6,1.4-1.2
				c-0.2-0.7-0.6-0.8-3.9-0.9c-2.5-0.1-4.3-0.3-7.3-0.8c-1.2-0.2-1.2-1,0-1c0.4,0,1.8,0.1,3.1,0.3c2.8,0.4,6.7,0.4,6.7,0.1
				c0-0.3-0.9-0.8-1.7-1c-0.4-0.1-1.1-0.3-1.7-0.5c-0.7-0.3-1.8-0.4-4-0.4c-2.7,0-3.1,0-4.1,0.5c-1.5,0.7-1.6,1.3-0.4,2
				c1.6,0.9,2.2,1.2,2.9,1.7c0.4,0.3,1.4,0.6,2.2,0.7s1.6,0.4,1.8,0.5C312.2,340.5,315,340.4,316.3,340L316.3,340z M361.4,339.1
				c0-0.5-0.4-0.9-0.9-0.9c-0.6,0-0.8,1.3-0.3,1.7c0.3,0.2,0.5,0.2,0.8-0.1C361.2,339.6,361.4,339.3,361.4,339.1L361.4,339.1z
				 M288,339.6c0-0.4-1.3-0.7-1.9-0.5c-0.3,0.1-0.3,0.2-0.1,0.5C286.4,340.1,288,340.1,288,339.6L288,339.6z M356.8,339.6
				c0.1-0.2,0.1-2.8,0-5.9c-0.1-3.7,0-5.7,0.1-6c0.1-0.2,0.3-1.2,0.3-2.1c0.1-2,0.2-2.8,0.4-3.7c0.1-0.6,0.1-0.8-0.4-1.3
				c-0.9-0.9-1.4-0.7-1.9,0.4c-0.2,0.5-0.5,1.3-0.6,1.7s-0.2,0.9-0.3,1.2c-0.3,0.6-0.6,3.2-0.8,5.3c-0.1,1-0.2,2.3-0.2,2.9
				c-0.1,0.6-0.1,1.6-0.2,2.1c0,0.5-0.2,1.6-0.2,2.3c-0.1,0.7-0.1,1.4,0,1.6c0.1,0.1,0.7,0.5,1.4,0.8c0.7,0.3,1.3,0.7,1.4,0.8
				C356.2,340,356.7,340,356.8,339.6L356.8,339.6z M438.1,339.2c2.4-0.1,2.9-0.2,2.9-0.8c0-0.6-0.5-0.7-3.5-0.7
				c-3.1,0-3.6,0.1-3.6,0.8c0,0.7,0.6,1,1.4,0.9C435.7,339.3,436.9,339.2,438.1,339.2z M359.4,338.8c0-0.2-0.1-0.4-0.3-0.4
				c-0.4,0-0.4,0.3-0.1,0.6C359.4,339.4,359.4,339.4,359.4,338.8z M362.8,339c0.1-0.4-0.2-1.6-0.5-2c-0.3-0.3-1-0.4-1.2-0.1
				c-0.1,0.2,0.4,1.7,0.8,2.2C362.2,339.4,362.6,339.4,362.8,339L362.8,339z M364.9,338.9c0.2-0.2-0.6-1.7-1-2
				c-0.8-0.5-1.4,0.2-0.6,0.8c0.2,0.2,0.3,0.5,0.3,0.8s0.1,0.6,0.1,0.6C363.9,339.3,364.7,339.1,364.9,338.9z M368.4,338.7
				c0.2-0.4-0.3-1.2-0.8-1.3c-0.4-0.1-0.4,0-0.4,0.5C367.1,338.9,368.1,339.5,368.4,338.7z M370,338.6c0-0.3-0.7-1-0.9-1
				c-0.3,0-0.2,1,0.1,1.3C369.4,339.1,370,338.9,370,338.6z M372.4,338.7c0.4-0.5-0.1-1-0.9-1c-0.7,0-1,0.4-0.8,1
				c0.1,0.2,0.4,0.3,0.8,0.3C371.9,339.1,372.3,338.9,372.4,338.7z M366.5,338.5c0.2-0.4-0.3-1.3-0.8-1.4c-0.3-0.1-0.4,0.1-0.4,0.4
				C365.4,338.5,366.2,339.3,366.5,338.5z M406.3,338.3c6.5-0.1,7.9-0.2,7.6-0.8c-0.3-0.4-20.3,0.5-20.8,1c-0.1,0.1,1.3,0.1,3.1,0
				S402.6,338.4,406.3,338.3z M282.6,337.9c0.3-0.4,0.3-0.5-0.1-1.1c-0.2-0.3-0.6-0.6-0.9-0.6c-0.7,0-1.2,1.4-0.6,1.9
				C281.4,338.5,282.2,338.4,282.6,337.9z M300.6,337.9c0.9-0.2,1.9-1,1.7-1.2c-0.4-0.4-2.7-0.8-5.3-1c-3.3-0.2-4.1-0.4-4.5-0.8
				c-0.4-0.4,0.2-0.8,0.9-0.6c1.6,0.3,8,0.8,8.1,0.7c0.2-0.2-0.2-0.5-1.4-1.1c-1.2-0.6-1.5-0.6-4.4-0.7c-2.6-0.1-3.2,0-3.8,0.3
				c-0.4,0.2-0.9,0.4-1.1,0.4c-0.2,0-0.6,0.2-0.8,0.5c-0.9,1.3,1.6,2.7,6.8,3.7c0.7,0.1,1.4,0.3,1.5,0.3
				C298.7,338.4,299.3,338.3,300.6,337.9z M352,338c0.1-0.2,0.1-1.4,0.1-2.6c0-2.1,0.2-4.5,0.6-6.7c0.2-1.2-0.1-1.2-1.2-0.3
				l-0.8,0.7v3.7v3.7l-0.9,0.1c-1,0.1-1.3,0.4-0.9,1c0.4,0.7,0.6,0.8,1.9,0.8C351.5,338.4,351.9,338.3,352,338L352,338z M423.7,338
				c0.5-0.1,0.7-0.6,0.3-0.9c-0.4-0.2-4.3-0.2-4.8,0.1c-0.8,0.4-0.6,0.9,0.5,1C420.6,338.3,422.8,338.2,423.7,338z M429.4,338
				c1.4,0,1.9-0.1,1.9-0.3c0-0.2-0.1-0.4-0.3-0.4c-0.5-0.2-3.8-0.2-4.1,0c-0.4,0.3-0.1,1,0.3,0.8C427.4,338,428.4,338,429.4,338
				L429.4,338z M287.9,337.7c0.1-0.1-0.2-0.2-0.7-0.2c-0.4,0-0.8,0.1-0.8,0.2c0,0.1,0.3,0.2,0.7,0.2S287.8,337.9,287.9,337.7z
				 M376.7,336.5c0.2-0.2-0.3-0.7-0.9-0.7c-0.7,0-1.2,0.2-1.2,0.6c0,0.2,0.3,0.3,1,0.3C376.1,336.6,376.6,336.6,376.7,336.5z
				 M432,335.9c0-0.6-0.1-0.7-0.6-0.7c-0.4-0.1-0.6,0.1-0.7,0.4c-0.2,0.6,0.3,1.1,0.9,1.1C431.9,336.5,432,336.4,432,335.9
				L432,335.9z M288.9,336.1c0.3-0.4,0-1.1-0.6-1.3c-1.9-0.6-6.5-0.8-6.6-0.4c-0.1,0.3,1.5,1.1,3.3,1.7
				C286.2,336.4,288.5,336.5,288.9,336.1L288.9,336.1z M379.8,336.3c0.2-0.1,0.3-0.2,0.3-0.3c0-0.3-0.9-0.1-1.1,0.2
				C379,336.4,379.3,336.5,379.8,336.3L379.8,336.3z M411.1,336.2c0-0.1-0.2-0.1-0.6-0.1s-0.6,0.1-0.6,0.2c0,0,0.2,0.1,0.6,0.1
				S411.1,336.3,411.1,336.2z M424.3,336.1c0.6-0.1,0.6-0.8,0-1.3c-0.4-0.4-0.6-0.4-1.4-0.1c-0.5,0.1-1.2,0.3-1.5,0.3
				c-0.3,0-0.7,0.2-1,0.3c-0.3,0.2-0.6,0.3-0.9,0.1c-0.5-0.3-1.7-0.2-1.8,0.1c-0.1,0.2,1.2,0.6,2.9,0.8
				C421.4,336.3,423.5,336.2,424.3,336.1L424.3,336.1z M333.4,335.5c0.5-0.7,0.5-1.4-0.2-1.9c-0.7-0.6-1.5-0.6-2.1,0
				c-0.6,0.6-0.6,1.6,0.2,2.2C332,336.3,332.8,336.2,333.4,335.5L333.4,335.5z M412,336c-0.2-0.1-0.4-0.1-0.4,0s0.1,0.1,0.3,0.1
				C412.2,336.2,412.2,336.1,412,336L412,336z M364.5,335.7c0.4-0.3,0.1-0.6-0.8-0.9c-0.8-0.2-1.2-0.1-1.2,0.3
				C362.5,335.8,363.9,336.1,364.5,335.7z M321.3,335.6c0.6-0.2,0.7-0.9,0.1-1.2c-0.5-0.3-1.5,0.4-1.3,0.9
				C320.3,335.8,320.5,335.8,321.3,335.6z M373.6,335.2c0.8-0.7,1.2-1.7,1.6-3.6c0.6-2.6,0.3-5.6-0.4-5.4c-0.2,0-0.6,0.6-0.9,1.3
				c-0.4,0.7-1,1.6-1.5,2.1c-1,1.1-1,1.6-0.4,3.5c0.2,0.7,0.5,1.6,0.6,1.9C372.7,335.9,372.8,335.9,373.6,335.2L373.6,335.2z
				 M436.6,335.2c0.6-0.9-1.4-1.7-2.4-1c-0.5,0.4-0.3,0.7,0.9,1.1C436.1,335.8,436.3,335.7,436.6,335.2z M317.4,335.2
				c0-0.3-1.2-1.3-2.2-1.8c-1.5-0.8-1.7-1.1-1.2-1.6c0.3-0.3,0.3-0.5,0.1-0.6c-0.9-0.7-1.9-0.5-1.9,0.2c0,0.8,1.6,2.8,2.3,2.8
				c0.2,0,0.8,0.2,1.5,0.5C317.1,335.3,317.4,335.4,317.4,335.2z M371.1,335.1c0.4,0,0.3-0.7-0.1-1.2c-0.2-0.2-0.3-0.6-0.3-0.9
				c0-0.2-0.4-0.8-0.9-1.2l-0.9-0.8l-0.4-2.8c-0.2-1.5-0.4-4-0.5-5.5c-0.1-1.5-0.3-2.8-0.4-2.9c-0.1-0.1-0.5-0.2-0.8-0.2
				c-0.5,0.1-0.5,0.2-0.5,1.5c0,0.8,0.1,3,0.3,5c0.2,2.6,0.2,4.2,0.1,5.7c-0.2,1.7-0.2,2.2,0,2.4
				C367.3,334.9,369.7,335.3,371.1,335.1z M384.6,334.7c0.2-0.2,0.3-0.3,0.2-0.4c-0.1,0-0.7-0.6-1.4-1.1c-0.7-0.6-1.3-1-1.4-0.9
				c-0.2,0.2,0.3,2.2,0.8,2.6C383.1,335.3,384,335.2,384.6,334.7L384.6,334.7z M326.2,334.7c0-0.2-0.4-0.5-0.7-0.6
				c-0.8-0.3-2.3-1.4-2.3-1.7c0-0.4,0.7-0.4,1.4-0.1c0.4,0.2,1.1,0.6,1.5,0.8c0.5,0.2,1.2,0.7,1.6,1c1.2,0.8,2.1,0.7,1.7-0.3
				c-0.1-0.4-0.5-0.7-2.8-1.8c-1.3-0.6-3.8-1.3-4.7-1.3c-0.9,0-1.3,0.6-1.1,1.3c0.3,0.7,1.8,2.4,2.6,2.8c0.4,0.2,1.2,0.4,1.8,0.4
				C326.1,335.1,326.3,335,326.2,334.7L326.2,334.7z M341.3,334.7c0.1-0.1,0-0.2-0.2-0.3c-0.5-0.3-1.4-0.1-1.5,0.3
				c-0.1,0.4,0,0.4,0.8,0.2C340.8,334.9,341.2,334.8,341.3,334.7L341.3,334.7z M346.2,334.5c-0.5-0.4-1.5-0.3-1.6,0.1
				c-0.1,0.2,0.2,0.3,1,0.3C346.6,334.8,346.7,334.8,346.2,334.5z M377.2,334.3c-0.2-1-0.6-1.8-0.8-1.8c-0.3,0-0.6,0.5-0.9,1.3
				c-0.3,1-0.2,1.1,0.9,1.1C377.3,334.9,377.4,334.8,377.2,334.3L377.2,334.3z M381.2,334.2c0.1-0.9-0.9-1.5-2.2-1.2
				c-0.8,0.1-0.9,0.5-0.6,1.2c0.2,0.6,0.3,0.6,1.5,0.5C381,334.8,381.2,334.7,381.2,334.2L381.2,334.2z M305.2,334.1
				c0.6-0.4,0.7-0.7,0.1-0.9c-0.2-0.1-1.5-0.9-3-1.9c-1.4-0.9-2.6-1.7-2.7-1.7s-0.1,0.3-0.1,0.6c0,0.7,0.7,1.7,1.6,2.5
				c0.4,0.3,1,0.9,1.4,1.3C303.4,334.7,304.1,334.8,305.2,334.1L305.2,334.1z M349.5,331.4c-0.1-3.1-0.1-3.3-0.8-4.8
				c-0.6-1.2-0.8-1.5-1.2-1.5c-1.2,0-1.8,2.3-1,4.1c0.7,1.5,0.7,1.7,1.3,3.3c0.6,1.5,1,2.1,1.6,2.1
				C349.6,334.6,349.6,333.9,349.5,331.4L349.5,331.4z M387.3,334.2c0.2-0.3,0.2-0.8,0.1-1.4c-0.1-0.5-0.2-1.3-0.2-1.7
				c-0.1-0.5-0.2-1.4-0.4-2c-0.2-0.6-0.4-1.6-0.6-2.2c-0.6-2.4-0.7-2.5-1.6-2.7c-0.5-0.1-1.2-0.2-1.6-0.3l-0.7-0.1l-0.4,2.2
				c-0.5,3-0.5,3.3,0.3,4.5c0.8,1.3,3.9,4.2,4.5,4.2C386.8,334.6,387.1,334.4,387.3,334.2z M428.5,334.4c-0.1-0.3-0.5-0.3-0.6,0.1
				c0,0.1,0.1,0.2,0.3,0.2S428.6,334.5,428.5,334.4z M319.7,333.8c0.5-0.5,0.4-1.1-0.2-1.5c-0.9-0.6-1.9-0.1-1.9,0.9
				C317.6,334.1,319,334.5,319.7,333.8z M365.6,331c-0.2-7.6-0.3-10.2-0.4-10.6c-0.2-0.6-1.1-0.7-1.7-0.2c-0.4,0.4-0.4,0.6-0.3,3.5
				c0.2,3.9,0.2,8,0,8.9c-0.2,1,0.5,1.6,1.6,1.6l0.8-0.1L365.6,331z M281.3,333.5c0.3-0.5,0.1-0.5,4.9-0.1c0.4,0,1.2,0.1,1.7,0.2
				c0.7,0.1,1,0.1,1.3-0.3c0.4-0.4,0.4-0.4-0.1-0.8c-0.7-0.4-4.3-0.9-5.7-0.7c-0.5,0.1-1.4,0.2-1.9,0.2s-1.1,0.3-1.4,0.5
				c-0.5,0.4-0.5,0.4-0.1,0.9C280.4,334.1,281,334.1,281.3,333.5L281.3,333.5z M338.7,333.6c0.8-0.8,0.1-1.5-0.9-0.9
				c-0.7,0.5-0.7,1.2,0,1.2C338.1,334,338.5,333.8,338.7,333.6L338.7,333.6z M361.9,333.5c0.3-0.3,0.4-0.8,0.4-1.6
				c-0.1-2-0.2-4.2-0.3-4.3c0,0,0-0.5,0.1-0.9c0.2-1-0.1-4.4-0.4-4.7c-0.2-0.2-0.3-0.2-0.6,0c-0.2,0.2-0.6,0.2-0.9,0.1
				c-0.3-0.1-0.7,0-0.9,0.1c-0.3,0.2-0.7,1.9-0.8,3.9c-0.1,0.7-0.2,1.9-0.2,2.7c-0.1,0.7-0.2,2.1-0.2,3c-0.1,2.1,0,2.1,2.1,2.1
				C361.3,334,361.6,333.9,361.9,333.5L361.9,333.5z M342.9,333.2c0.2-0.4-0.5-1-1.2-1c-0.8,0-1.2,0.8-0.7,1.1
				C341.6,333.6,342.7,333.6,342.9,333.2L342.9,333.2z M309.3,332.9c0.1-0.1,0.4-0.4,0.5-0.7c0.5-1-0.7-2-1.7-1.4
				c-0.6,0.3-0.7,1.9-0.1,2.1C308.7,333.1,309.1,333.1,309.3,332.9L309.3,332.9z M346.8,332.6c0-0.6-1-2.6-1.3-2.6
				c-0.3,0-1.4,2.4-1.3,2.7c0.1,0.3,0.4,0.4,1.4,0.4C346.7,333.1,346.8,333,346.8,332.6z M336.9,332.4c2-1.4,4.4-3.9,4.4-4.7
				c0-0.6-0.8-1.5-1.4-1.5c-0.9,0-1.9,0.8-2.1,1.8c-0.1,0.5-0.6,1.7-1.1,2.6c-0.5,0.9-0.8,1.8-0.8,1.9
				C336,333,336.1,333,336.9,332.4z M298.7,331.9c0.1-0.3-0.3-1-0.6-1c-0.1,0-0.3,0.1-0.6,0.3c-0.4,0.3-0.4,0.4-0.1,0.7
				C297.9,332.3,298.6,332.3,298.7,331.9L298.7,331.9z M306.6,331.3c0-0.8-2.9-2.3-4.9-2.6c-1.4-0.2-1.1,0.4,0.6,1.4
				c0.8,0.5,1.9,1.1,2.5,1.5C305.9,332.2,306.6,332.1,306.6,331.3L306.6,331.3z M379.7,332c0.6-0.2,0.9-1.1,0.4-1.4
				c-0.2-0.1-0.9-0.2-1.6-0.2c-1.1,0-1.3,0.1-1.4,0.4c-0.2,0.8,0.3,1.3,1.2,1.3C378.8,332.2,379.4,332.1,379.7,332L379.7,332z
				 M294.2,331.6c0-0.5-0.7-1.2-2.3-1.9c-1.3-0.6-1.5-0.9-0.9-1.2c0.3-0.2,0.6-0.1,1.2,0.2c0.9,0.5,1.1,0.5,1.1,0.2
				c0-0.3-1.8-1.3-2.6-1.5c-0.8-0.2-1.3,0.2-1.3,0.9c0,0.4,2.3,2.9,3.2,3.4C293.2,332.1,294.2,332.1,294.2,331.6z M343.3,331
				c0-0.4-1-0.8-1.6-0.6c-0.2,0.1-0.4,0.3-0.4,0.6c0,0.4,0.2,0.4,1,0.4C343,331.3,343.3,331.2,343.3,331L343.3,331z M287,330.9
				c0.1-0.1-0.3-0.4-0.8-0.7c-0.7-0.4-1-0.7-1-1.1c0-0.4-0.3-0.7-0.6-0.9c-0.5-0.2-0.6-0.2-1,0.2c-0.4,0.4-0.4,0.5-0.2,1.1
				C283.9,330.6,286.5,331.6,287,330.9L287,330.9z M296.6,330.8c0.1-0.2,0.3-0.6,0.4-1c0.1-0.6,0-0.7-0.4-1
				c-0.6-0.4-1.4-0.3-1.7,0.3C294.3,330.2,295.9,331.7,296.6,330.8L296.6,330.8z M281.9,330.4c0.3-0.4,0.2-1.2-0.1-1.5
				c-0.2-0.1-0.6-0.2-0.9-0.2c-0.5,0.1-0.6,0.2-0.7,0.8c-0.1,0.5,0,0.8,0.3,1.1C280.8,330.9,281.6,330.8,281.9,330.4L281.9,330.4z
				 M371.3,329.5c0.7-0.7,2.1-3,2.1-3.3c0-0.2,0.2-0.7,0.3-1.2c0.3-1,0.3-1.4-0.4-3.1c-0.1-0.3-0.3-0.9-0.3-1.4
				c-0.1-1.4-0.4-1.5-2.1-1.4c-0.8,0.1-1.6,0.2-1.7,0.3c-0.3,0.2-0.2,3.3,0.2,5.7c0.1,0.7,0.3,2,0.4,2.8c0.2,1.4,0.5,2.1,0.9,2.1
				C370.7,330,371,329.8,371.3,329.5z M344.3,329c0.9-1.1-0.1-1.6-1.4-0.7c-0.8,0.5-0.9,0.7-0.4,1.1
				C343.2,329.7,343.9,329.6,344.3,329L344.3,329z M379.4,329.1c0.8-0.3,1.2-1.1,1.4-2.9c0.2-1.8-0.1-3.3-1.1-6.1
				c-0.9-2.3-1.1-2.4-2.9-2.1c-0.6,0.1-1.4,0.3-1.7,0.4c-1.3,0.3-1.3,0.7-0.4,3.7c0.3,1,1.3,2.9,1.6,3.2c0.1,0.1,0.4,0.5,0.8,0.9
				c0.6,0.8,0.6,0.9,0.3,1.4c-0.4,0.6-0.5,1.6-0.1,1.7C377.5,329.5,378.6,329.4,379.4,329.1z M287.3,328.4c0.1,0,0.3-0.3,0.5-0.7
				c0.4-1,0-1.8-1-1.8c-0.8,0-1.2,0.4-1.2,1.2c0,0.5,0.9,1.5,1.3,1.4C287,328.5,287.2,328.4,287.3,328.4L287.3,328.4z M344,326.7
				c0.6-0.3,3.7-3.8,3.8-4.4c0.1-0.3,0.3-0.7,0.5-1c0.2-0.2,0.3-0.8,0.3-1.1c0-0.8-0.1-0.8-2.9-1.2c-3-0.4-3.2-0.4-3.5,0.3
				c-1,2.1-1.2,6.1-0.4,7.3c0.3,0.5,0.5,0.6,1.1,0.5C343.3,326.9,343.8,326.8,344,326.7L344,326.7z M351.4,325.9
				c0.2-0.7,0.3-1.6,0.3-2c-0.1-1.6-0.1-1.9,0-2.8c0-1.1-0.3-1.6-1-1.6c-0.5,0-0.6,0.1-1.4,2.2c-0.6,1.8-0.6,2.3-0.1,3.7
				C350.2,327.5,351,327.7,351.4,325.9L351.4,325.9z M339.7,324.9c0.5-0.4,0.7-0.8,0.6-1c-0.3-1-0.1-2.8,0.6-4.2
				c0.8-1.9,0-2.2-1.1-0.4c-1.3,2-2.3,5-1.9,6C338,325.8,339,325.6,339.7,324.9z M353.4,323.7c0-0.3,0.1-0.6,0.2-0.7
				c0.1-0.1,0.3-0.7,0.5-1.4c0.2-0.9,0.2-1.2,0-1.5c-0.4-0.4-1-0.4-1.2,0.1c-0.2,0.5,0.1,4.3,0.3,4.1
				C353.3,324.3,353.4,324,353.4,323.7L353.4,323.7z M384.6,321.9c0.1-0.4,0-1.4-0.1-2.3c-0.2-0.9-0.3-2-0.3-2.6
				c0-0.5-0.1-1.1-0.2-1.3c-0.1-0.2-0.4-1-0.6-1.7c-0.5-1.8-1-1.7-1.8,0.1c-0.3,0.8-0.8,1.6-1.1,1.9c-0.8,0.9-0.8,1.3-0.3,2.5
				c0.3,0.6,0.7,1.3,0.9,1.4c0.2,0.2,0.6,0.7,0.9,1.2c0.7,1.1,1.1,1.4,1.9,1.4C384.3,322.6,384.5,322.4,384.6,321.9L384.6,321.9z
				 M361,320.4c0.5-0.7,3.8-2,4.2-1.8c0.1,0,1.1,0,2.4-0.2c1.2-0.2,3.1-0.4,4.3-0.4c1.1-0.1,2.5-0.3,3.1-0.4c0.5-0.2,1.4-0.4,2-0.5
				c2.9-0.5,4.4-2.8,4.6-7.2c0.1-2.6,0.2-4.8,0.1-7.5c0-1.4,0-3.3,0.1-4.3c0.1-1,0.1-4.3,0.2-7.4c0.1-3.1,0.2-7.2,0.2-9.2
				c0.1-1.9,0.1-3.9,0-4.2c-0.3-1.4,0.5-1.4-14-1.4c-7.3,0-15.3-0.1-18-0.1s-5.8,0-7.2,0.1l-2.4,0.1l-0.2,1.5
				c-0.1,0.9-0.2,2.3-0.2,3.3c0,1,0,1.9,0,2c0,0.1-0.1,5.2-0.2,11.4c-0.1,6.1-0.2,12-0.2,12.9c0,4.3,0.9,8.3,2.3,9.5
				c0.9,0.8,3.1,1.3,6.4,1.5c1.6,0.1,3.7,0.3,4.6,0.5c0.9,0.2,2.1,0.4,2.7,0.4c0.6,0.1,1.7,0.5,2.4,0.9
				C359.9,320.8,360.5,320.9,361,320.4L361,320.4z M359.4,318.1c-1-0.6-2.6-0.9-5.1-1.1c-0.8-0.1-2.3-0.2-3.3-0.3s-2-0.1-2.2-0.1
				c-0.7,0.3-4-0.4-5.4-1.1c-2.3-1.1-2.3-1.1-2.3-9.1c0-3.7,0.1-9.5,0.2-13.1c0.1-3.5,0.2-8.5,0.2-11c0-4.6,0-4.6,0.6-5
				c0.5-0.4,0.7-0.4,2-0.3c0.8,0.1,2.2,0.1,3.2,0.1c1,0,3.4,0,5.3,0c6.1,0,25.4,0,26.4-0.1l1,0l0,5.6c0,3.1,0,6.4,0,7.3
				c0.1,12.7-0.1,20.8-0.4,22c-1,3.2-2.8,4-10,4.4c-2.8,0.1-6.3,0.7-7.2,1.2c-0.2,0.1-0.6,0.4-0.9,0.7
				C361,318.8,360.6,318.8,359.4,318.1L359.4,318.1z M361.2,316.6c0.2-0.4,0.2-1.4,0.1-3c-0.1-1.3-0.1-2.6-0.1-2.8
				c0.2-0.8,0.4-6,0.3-7.7c-0.1-1.4,0.1-7.6,0.3-8.9c0.2-1.4-0.3-1.9-1.5-1.9c-0.5,0-0.9,0.1-1,0.2c-0.1,0.2-0.2,4.6-0.4,19.6
				c-0.1,4.2,0,4.4,0.4,4.8C359.9,317.4,360.9,317.3,361.2,316.6L361.2,316.6z M357.7,315.2c0.1-0.6,0-1.7-0.1-2.5
				c-0.1-0.8-0.1-1.5-0.1-1.6c0.1-0.1,0.2-3.8,0.2-8.1s0.1-8.4,0.2-9.1c0.1-1.2,0.1-1.3-0.5-1.5c-0.4-0.1-0.7-0.2-0.8,0
				c-0.1,0.1-0.2,2.9-0.3,6.4c0,3.4-0.1,8.5-0.2,11.4s-0.1,5.4,0,5.7c0.1,0.3,0.3,0.4,0.8,0.4C357.5,316.3,357.6,316.2,357.7,315.2
				L357.7,315.2z M364.3,315.6c0.1-0.3,0.3-3.8,0.3-9.6c0-5.1,0.1-10.1,0.2-11.2c0.1-1.9,0.1-2.1-0.3-2.3c-0.5-0.3-1.4-0.1-1.6,0.3
				c-0.1,0.2-0.1,5.4-0.2,11.6c0,8.6,0,11.4,0.2,11.6C363.2,316.3,364,316.1,364.3,315.6L364.3,315.6z M354.7,315.8
				c0.2-0.2,0.3-3.2,0.4-9.6c0.1-5.1,0.1-10.3,0.2-11.6l0-2.3l-0.7-0.1c-0.4,0-0.8,0-1,0.2c-0.1,0.1-0.3,2.2-0.3,5.2
				c0,2.7-0.1,7.8-0.2,11.3c-0.1,5.8-0.1,6.4,0.2,6.8C353.8,316.1,354.4,316.2,354.7,315.8L354.7,315.8z M351.9,315.5
				c0.1,0,0.2-4.2,0.2-9.3s0.1-10.1,0.1-11.2c0.1-1.8,0.1-2-0.3-2.4c-0.2-0.2-0.7-0.4-1-0.3l-0.5,0.1l-0.2,11.3
				c-0.1,7.4-0.1,11.4,0.1,11.8c0.2,0.4,0.3,0.5,0.8,0.4C351.5,315.6,351.8,315.5,351.9,315.5L351.9,315.5z M348.6,315.4
				c0.4-0.2,0.4-0.4,0.3-4.4c-0.1-2.3-0.1-4.3-0.1-4.5c0-0.2,0.1-1.6,0.1-3.2c0-1.6,0.1-4.3,0.2-6.1c0.2-4.5,0.2-4.4-0.1-4.7
				c-0.3-0.4-1-0.4-1.3-0.1c-0.3,0.4-0.6,22.5-0.2,22.9C347.8,315.7,348,315.7,348.6,315.4L348.6,315.4z M367,315.3
				c0.3-0.2,0.4-0.5,0.3-1.7c0-0.8-0.1-2-0.1-2.7c0-0.7,0-3.6,0.1-6.4c0-2.8,0.1-6.6,0.2-8.4c0.1-2.4,0.1-3.4,0-3.6
				c-0.4-0.4-1.2-0.4-1.5,0.1c-0.1,0.2-0.2,2.7-0.3,5.6c0,2.9-0.1,7.8-0.1,11c0,3.7,0,6,0.2,6.1C366.1,315.7,366.5,315.7,367,315.3
				L367,315.3z M370,315.2c0.3-0.2,0.3,0,0.5-16.7c0-2.7,0.1-5,0.2-5.1c0.1-0.1,0-0.4-0.1-0.7c-0.3-0.5-1.4-0.6-1.7-0.2
				c-0.3,0.3-0.6,21.7-0.4,22.5C368.7,315.4,369.4,315.6,370,315.2L370,315.2z M373.8,314.8c0.3-0.3,0.3-0.2,0.2-3.9
				c0-2.9,0-6.2,0-8.7c0-0.9,0-3.4,0-5.7l0-4.2l-0.9-0.1c-1.6-0.1-1.5-0.9-1.6,11.5c0,7.1,0,11.2,0.2,11.3
				C372,315.4,373.4,315.2,373.8,314.8L373.8,314.8z M345.8,315c0.2-0.1,0.3-1.7,0.3-5.7c0-9.3,0.1-14.8,0.3-15.6
				c0.1-0.6,0.1-0.9-0.2-1.2c-0.4-0.4-0.9-0.5-1.1-0.2c-0.1,0.1-0.2,4-0.3,8.8c-0.1,4.7-0.2,9.6-0.3,10.8
				C344.4,314.7,344.8,315.7,345.8,315L345.8,315z M376.5,314.4c0.3-0.3,0.3-1.6,0.3-8.9c0-4.7,0-9.4,0.2-10.6
				c0.2-2.3,0.1-2.7-0.8-2.7c-0.3,0-0.6,0.1-0.7,0.3c-0.2,0.3-0.4,21.7-0.2,22.1C375.4,314.9,376.1,314.8,376.5,314.4z M343.7,309.7
				c0-1.9,0-3.9,0-4.5c0-0.6,0-1.6,0-2.3c0-0.7,0.1-3,0.1-5s0.2-4.1,0.2-4.5c0-0.9-0.5-1.4-1.1-0.9c-0.3,0.2-0.4,2.2-0.6,13
				c-0.1,5,0,6.8,0.2,7.3c0.4,0.9,0.6,1,0.9,0.8C343.6,313.2,343.7,312.3,343.7,309.7z M378.8,303.7c0.2-12.1,0.3-11.2-0.2-11.2
				c-0.3,0-0.5,0.2-0.6,0.8c-0.2,1-0.3,18.4-0.1,18.9c0.1,0.3,0.2,0.3,0.4,0.1C378.5,312,378.6,310.1,378.8,303.7L378.8,303.7z
				 M357.1,291.3c3.9,0,4.4-0.4,0.7-0.5c-3.1-0.1-6.7-0.1-7.6,0c-0.4,0-1.6,0-2.7,0c-2.1-0.1-2.5,0-2.5,0.3c0,0.2,1.9,0.3,5.7,0.3
				C352.4,291.4,355.3,291.3,357.1,291.3z M365,291.1c-0.1-0.1-0.3-0.2-0.4-0.1c-0.2,0.1-0.5,0-0.8-0.1c-0.3-0.1-0.7-0.1-1,0
				l-0.6,0.2l0.5,0.1C363.4,291.5,365.2,291.3,365,291.1L365,291.1z M368.6,291.1c0.1-0.1-0.3-0.2-1.1-0.2c-0.7,0-1.2,0.1-1.2,0.2
				c0,0.1,0.5,0.2,1.1,0.2S368.5,291.2,368.6,291.1z M369.6,291.2c-0.2-0.1-0.4-0.1-0.4,0c-0.1,0.1,0.1,0.1,0.3,0.1
				C369.7,291.3,369.8,291.2,369.6,291.2L369.6,291.2z M371.9,291.2c-0.2-0.2-1.3-0.3-1.3-0.1c0,0.1,0.3,0.2,0.7,0.2
				C371.8,291.3,372,291.2,371.9,291.2L371.9,291.2z M375.8,291.1c0-0.1-0.3-0.2-0.7-0.2c-0.4,0-0.6,0.1-0.5,0.2
				c0.1,0.1,0.4,0.2,0.7,0.2C375.5,291.3,375.8,291.2,375.8,291.1z M361.8,289.3c0.5-0.2,1-0.4,1.1-0.3s2.8,0.2,6,0.2
				c4.4,0,5.9,0,6.4-0.2c0.4-0.2,0.5-0.3,0.3-0.3c-1-0.1-30.7-0.1-31.4,0c-0.5,0.1-0.7,0.2-0.5,0.3c0.2,0.2,5.1,0.3,13.7,0.2
				c1.5,0,2.2,0.1,2.5,0.3C360.8,289.8,360.8,289.8,361.8,289.3L361.8,289.3z M378.4,287.6c0.2-0.1,0.2-0.3,0.2-0.4
				c-0.2-0.3-35-0.3-35.2,0c-0.1,0.1-0.1,0.3,0,0.4C343.5,287.8,378,287.8,378.4,287.6L378.4,287.6z M378.2,285.8
				c0.2-0.2-1.6-0.6-2-0.4c-0.2,0.1-3.8,0.2-8,0.2c-1.4,0-4.7,0-7.4,0c-2.7,0-5,0-5.2,0c-1.9-0.1-12.4,0.1-12.4,0.2
				c0,0.1,0.2,0.2,0.4,0.3C344.6,286.2,378,286,378.2,285.8L378.2,285.8z M353.2,284.7c6.3,0,7.6,0,7.8-0.3c0.1-0.1-3.1-0.2-8.6-0.2
				c-4.8,0-8.8,0-8.9-0.1s-0.2,0.1-0.2,0.2c-0.1,0.3,0.8,0.4,3.1,0.4C347.4,284.7,350.5,284.7,353.2,284.7L353.2,284.7z
				 M368.5,284.7c0.4,0,1.8,0,3.2,0c1.3,0,2.8-0.1,3.2-0.2l0.8-0.2l-0.9-0.1c-0.5,0-1.3,0-1.9,0c-0.5,0-3.4,0-6.3,0
				c-2.9,0-5.2,0.1-5.1,0.2c0.1,0.1,5.8,0.5,6.1,0.3C367.7,284.7,368.1,284.7,368.5,284.7z M378,284.4c0-0.1-0.5-0.2-1.2-0.2
				c-0.6,0-1,0.1-0.8,0.2C376.5,284.6,378,284.6,378,284.4L378,284.4z M348.2,283.1c0.1-0.1-0.2-0.2-0.6-0.2c-0.6,0-0.7,0-0.3,0.2
				C347.9,283.4,348.1,283.4,348.2,283.1z M354.5,283c0-0.1-0.2-0.1-0.3-0.1s-0.3,0.1-0.2,0.2C354.1,283.3,354.5,283.2,354.5,283z
				 M358.6,283.1c0.4-0.2,0.4-0.2-0.1-0.2c-1.8-0.1-3.6,0-3.6,0.2C355,283.4,357.9,283.4,358.6,283.1z M365.9,283.1
				c0.1-0.1-0.5-0.2-1.5-0.2c-0.9,0-1.6,0.1-1.5,0.2C363,283.4,365.7,283.4,365.9,283.1L365.9,283.1z M368,283.1
				c0-0.1-0.3-0.2-0.7-0.2s-0.7,0.1-0.7,0.2c0,0.1,0.3,0.2,0.7,0.2S368,283.3,368,283.1z M377.3,282.1c0.2,0,0.3-0.1,0.2-0.3
				c-0.1-0.2-4.1-0.3-16.4-0.3c-9,0-16.6,0-17,0.1c-1.9,0.3,0.3,0.4,7.8,0.5c4.6,0,8.5,0.1,8.5,0.1
				C360.5,282.2,376.6,282.1,377.3,282.1L377.3,282.1z M375.9,279.5c0.6-0.1,1.1-0.3,1-0.4c-0.2-0.3-32.9-0.3-33.3,0
				c-0.1,0.1-0.1,0.2,0,0.4C344,279.8,374.2,279.9,375.9,279.5L375.9,279.5z M387.2,307.8c0.3-0.2,0.5-0.6,0.6-0.9
				c0.1-0.5-0.2-0.9-2.3-3c-1.3-1.3-2.5-2.3-2.6-2.2s-0.2,1.1-0.2,2.3c-0.1,1.8,0,2.1,0.4,2.8c0.2,0.4,0.7,0.9,1,1
				C384.7,308.2,386.6,308.2,387.2,307.8L387.2,307.8z M337,306.9c1.6-0.5,1.8-0.7,1.8-2.5c0-1.2,0-1.6-0.3-1.7
				c-0.4-0.2-0.3-0.2-2.7,1.4c-1,0.7-1.9,1.4-2,1.5c-0.2,0.4,0.2,1,0.9,1.3C335.4,307.3,335.7,307.3,337,306.9L337,306.9z
				 M392.1,305.7c0.7-0.2,1.2-1,1.4-2.2c0.2-0.7-0.4-1.6-1.3-2.2c-0.9-0.6-2.8-2.5-2.8-2.7c0-0.3-1.8-2.2-2.1-2.2
				c-0.1,0-0.7,0.3-1.3,0.6c-0.6,0.3-1.4,0.6-1.7,0.5c-1.4-0.1-1.4,0-1,1.6c0.3,1.3,3.2,4.5,5,5.8c0.6,0.4,2,0.9,2.8,1
				C391.2,305.9,391.7,305.8,392.1,305.7z M331.7,305.1c0.6-0.2,1.3-0.5,1.5-0.7c0.6-0.5,3.3-2.3,4.2-2.7c1.2-0.6,1.3-0.9,1.3-3.5
				c0-1.3-0.1-2.5-0.2-2.7c-0.2-0.3-0.5-0.4-1.2-0.4c-1,0-1.1,0-3.1,2.1c-2,2-4.2,3.9-4.6,3.9c-0.1,0-0.4,0.2-0.6,0.4
				c-0.3,0.2-0.8,0.6-1.2,0.8c-1.3,0.7-1.1,1.9,0.5,2.7C329.4,305.6,330.2,305.6,331.7,305.1L331.7,305.1z M399.5,302.4
				c0.2-0.2,0.4-0.9,0.5-1.5l0.1-1.1l-1.1-0.6c-0.6-0.3-1.5-1-2.1-1.4s-1.3-1-1.8-1.3c-0.4-0.3-1.3-1-2-1.7
				c-1.3-1.4-1.9-1.5-2.6-0.7c-0.3,0.3-0.8,0.7-1.1,0.8c-0.8,0.4-1,0.8-0.4,1.4c0.3,0.3,0.8,0.9,1.2,1.4c1.8,2.3,4.1,4.3,5.8,4.9
				C397.3,302.9,399,302.9,399.5,302.4L399.5,302.4z M325.2,302.1c1.5-0.4,2-0.6,3.6-1.9c1.1-0.8,2.9-2.4,4.1-3.6
				c2-1.9,2.2-2.1,2.2-2.9c0-0.8-0.1-0.9-0.8-1.2c-1.5-0.6-2.4-0.4-3.9,0.7c-0.7,0.6-1.7,1.3-2.2,1.6s-1.1,0.7-1.4,1
				c-0.5,0.5-1.6,1.1-4.9,2.7c-1.1,0.6-2.1,1.2-2.2,1.3c-0.2,0.4,0.5,1.7,1,1.8c0.2,0.1,0.5,0.3,0.7,0.4c0.3,0.3,0.9,0.4,1.8,0.5
				C323.3,302.6,324.2,302.4,325.2,302.1L325.2,302.1z M404.7,299c0.9-0.2,1.4-0.7,1.6-1.5c0.2-0.6-0.6-1.6-1.6-2.1
				c-1-0.5-2.9-2-4.5-3.6c-1-1-1.8-1.6-2.5-1.8c-1.3-0.5-1.2-0.5-2.2,0.4c-0.5,0.4-1.3,0.9-1.7,1.2c-1.5,0.8-1.5,0.9,0.3,2.4
				c2.7,2.2,5.6,4.2,6.9,4.9C401.8,299.3,403.6,299.4,404.7,299L404.7,299z M320.1,298.2c0.6-0.3,1.8-0.9,2.7-1.5s1.7-1,1.8-1
				c0.1,0,0.5-0.3,0.9-0.6c0.4-0.3,1.6-1.1,2.6-1.8c1-0.7,2.1-1.5,2.4-1.8c0.5-0.5,0.6-0.6,0.3-1.3c-0.3-0.9-0.8-1.2-1.8-1.2
				c-0.5,0-1.3-0.1-1.8-0.3c-1.1-0.3-1.3-0.2-3.3,1.3c-2.9,2.2-7.4,4.7-9.4,5.4c-0.5,0.1-0.9,0.4-0.9,0.7c-0.2,0.5,0.4,1.5,1,2
				C315.7,298.9,318.4,298.9,320.1,298.2L320.1,298.2z M385.3,296c0.5-0.4,0.5-0.4,0.2-0.9c-0.3-0.5-1.8-1.6-2.2-1.6
				c-0.3,0-0.5,0.6-0.5,1.3C382.8,296.2,384.2,296.8,385.3,296L385.3,296z M411.8,295.7c1.2-0.2,1.6-0.4,2-0.9
				c0.6-0.7,0.7-1.3,0.3-1.7c-0.2-0.1-1-0.4-1.9-0.7c-1.7-0.5-2.1-0.6-4.1-1.6c-1.2-0.5-2.8-1.6-4.1-2.7c-1.5-1.3-1.7-1.3-2.9,0
				c-0.6,0.6-1.1,1.3-1.1,1.6c0,0.5,2.7,3,4.4,4.2c0.7,0.4,1.4,1,1.7,1.2c0.5,0.5,2.7,1,3.6,0.9C410.1,296,411,295.9,411.8,295.7
				L411.8,295.7z M314.4,294.4c0.8-0.3,1.5-0.5,1.6-0.6c0.3-0.2,4.1-2.4,4.2-2.4c0.1,0,0.5-0.3,1-0.7c0.5-0.4,1.4-1,1.9-1.3
				c1.4-0.8,1.6-1.1,1.4-2c-0.2-1.2-0.9-1.8-2.6-2.2c-1.4-0.4-1.5-0.3-2.2,0c-0.4,0.2-1,0.6-1.3,0.7c-0.3,0.2-1.1,0.7-1.8,1.1
				c-1.9,1.2-2.1,1.3-2.4,1.5c-1.9,0.9-2.7,1.2-3,1.2c-0.2,0-0.4,0.1-0.4,0.2c-0.1,0.1-0.5,0.3-1,0.5c-1.8,0.6-2,0.7-2.2,1.4
				c-0.2,1.2,0.3,2.2,1.3,2.6C310.9,294.9,312.6,295,314.4,294.4L314.4,294.4z M389.2,293.6c0.5-0.4,0.9-0.9,0.9-1.1
				c0-0.1-0.4-0.6-0.9-1c-0.5-0.4-2-1.8-3.3-3.1c-1.3-1.3-2.5-2.4-2.7-2.4c-0.2,0-0.3,0.4-0.3,1.1c0,0.6-0.1,1.4-0.1,1.8
				c-0.2,1.6,0.1,2.6,1.1,3.7c1.1,1.2,2.2,1.8,3.4,1.8C388.2,294.4,388.5,294.3,389.2,293.6z M338.8,293.6c0.3-0.4,0.1-1.9-0.3-1.9
				c-1.3,0-2.3,1-1.9,1.8C336.9,294.1,338.4,294.1,338.8,293.6z M418.5,291.4c0.8-0.4,1.4-0.8,1.6-1.3c0.3-0.6,0.3-0.7-0.1-1.1
				c-0.3-0.2-1.3-0.7-2.3-1c-2.7-0.9-5.7-2.4-7-3.5c-1.4-1.2-1.7-1.2-2.8,0.2c-0.5,0.6-1.1,1.1-1.6,1.2c-0.5,0.1-1,0.4-1.2,0.6
				c-0.4,0.3-0.4,0.3,0,0.7c2,2,5,3.5,8.8,4.5C415.8,292.3,416.9,292.2,418.5,291.4L418.5,291.4z M337.5,290.8
				c0.6-0.3,1.2-0.7,1.3-0.9c0.1-0.2,0.2-1.3,0.2-2.4c-0.1-2.4-0.3-2.5-1.9-1.3c-1.2,0.9-3.2,1.9-4.2,2.2c-0.9,0.2-1.1,0.6-0.7,1.5
				C332.7,291.4,335.3,291.8,337.5,290.8z M393.7,290.4c1.1-0.8,0.9-1.3-1.3-3.1c-1.6-1.3-4-3.8-4.4-4.6c-0.1-0.3-0.6-0.6-0.9-0.7
				c-0.9-0.2-3.6,0.4-3.7,0.9c-0.1,0.6,1.1,2.1,3.9,5c2.2,2.2,3,2.9,3.7,3C391.9,291.3,392.7,291.1,393.7,290.4z M311,288.5
				c2.9-1.2,4-1.8,6.2-3.3l1.9-1.3v-1.3v-1.3l-1.2-0.1c-0.7-0.1-1.8-0.2-2.5-0.3c-1.1-0.1-1.4-0.1-2.1,0.3c-0.4,0.2-1.2,0.6-1.7,0.7
				c-0.5,0.2-1.3,0.6-1.9,0.9c-0.6,0.3-1.2,0.6-1.4,0.6c-0.2,0-0.8,0.2-1.3,0.4s-1.5,0.6-2.2,0.8c-2.1,0.6-2.9,1.8-2.3,3.3
				c0.5,1.3,1.6,1.7,4.2,1.6C308.7,289.4,309.1,289.3,311,288.5L311,288.5z M400.2,287.6c0.4-0.5,0.7-1.1,0.7-1.2
				c0-0.1-0.7-0.6-1.4-1c-0.7-0.4-1.6-0.9-2-1.1c-1.2-0.7-3.5-2.3-4.7-3.4c-0.7-0.6-1.4-1.1-1.6-1.1c-0.5,0-2.3,1.1-2.5,1.5
				c-0.1,0.2,0.1,0.6,0.4,0.9c0.3,0.3,0.8,0.9,1.1,1.2c1.5,1.8,3.6,3.7,4.9,4.4c1.3,0.7,1.5,0.8,3,0.7
				C399.5,288.5,399.5,288.5,400.2,287.6L400.2,287.6z M426.8,288.1c0.1-0.1,0.8-0.2,1.6-0.3c2.1-0.2,2.5-0.5,2.6-1.6
				c0.1-1.7-0.5-2.2-3.3-2.7c-2.3-0.4-4.1-0.9-6.3-1.7c-0.7-0.3-1.6-0.6-2-0.7s-1.3-0.5-2.1-0.8c-1.4-0.6-1.4-0.7-2.1-0.3
				c-0.9,0.5-1.2,0.2-0.9-0.8c0.4-0.9,0-1.2-2-1.4c-1.7-0.2-3.6-0.6-3.9-0.9c-0.1-0.1-0.4-0.2-0.6-0.2s-0.6-0.1-0.7-0.2
				c-0.1-0.1-0.7-0.3-1.2-0.5c-0.5-0.2-1.2-0.5-1.5-0.6c-0.3-0.2-1.1-0.6-1.9-1c-0.7-0.4-1.4-0.7-1.4-0.8c-0.2-0.3-2.7-1.5-3-1.5
				c-0.5,0-1.5,1.3-1.9,2.2l-0.3,0.8l1.1,1c1.8,1.6,4.4,3.1,8.1,4.4c2.1,0.8,2.6,0.9,3.9,0.8c0.8,0,1.8-0.2,2.2-0.4
				c1-0.5,1.9-0.7,2.2-0.5c0.3,0.2-0.2,1-0.6,1c-0.2,0-0.5,0.1-0.7,0.2c-0.2,0.1-0.7,0.3-1,0.5s-0.6,0.4-0.6,0.6
				c0,0.4,2.1,1.9,4.1,2.9c2,1,6,2.3,7.6,2.4C424,288.4,426.5,288.3,426.8,288.1L426.8,288.1z M331.4,287.7c1.3-0.4,3.2-1.3,4.3-2.1
				c0.5-0.4,1.3-0.9,1.9-1.2c1.2-0.7,1.5-1.1,1.5-1.9c0-0.9-0.4-1.3-2-1.6c-1.3-0.3-1.5-0.3-2.3,0.1c-0.5,0.2-1.1,0.6-1.3,0.9
				c-0.2,0.3-0.5,0.5-0.6,0.5c-0.1,0-0.9,0.4-1.9,1c-0.9,0.5-1.9,1-2.1,1c-0.8,0-3.5,1.1-3.5,1.4c-0.1,0.5,0.5,1.4,1.1,1.7
				C327.7,288,329.8,288.1,331.4,287.7L331.4,287.7z M405.7,285.2c0.9-0.4,1.7-1.3,1.7-1.9c0-0.5-0.3-0.7-2.2-1.3
				c-3.1-1.1-7.2-3.3-9-5c-0.3-0.3-0.7-0.5-0.9-0.5c-0.5,0-2.6,2.1-2.5,2.5c0.2,0.4,1.9,1.8,3.4,2.9c0.7,0.5,1.4,1,1.5,1.1
				s0.4,0.3,0.5,0.3c0.1,0,0.6,0.3,1.1,0.7C401.3,285.4,404.1,285.9,405.7,285.2L405.7,285.2z M303.5,283.7c0.7-0.3,1.4-0.6,1.7-0.6
				c0.2,0,0.6-0.2,0.9-0.3c0.2-0.2,0.6-0.3,0.7-0.3s0.9-0.3,1.7-0.6c0.7-0.3,1.9-0.9,2.6-1.1c1.7-0.7,1.9-1,1-2.5
				c-0.4-0.7-0.7-1.4-0.7-1.5c0-0.7-2.5-0.8-3.7-0.1c-0.9,0.4-1.2,0.6-3.2,1.4c-0.7,0.3-1.5,0.6-1.8,0.8c-0.2,0.1-0.8,0.4-1.3,0.5
				c-2,0.5-2.9,0.8-3.3,0.9c-0.2,0.1-0.9,0.3-1.4,0.4c-1.4,0.3-1.5,0.5-1.5,1.8c0,1,0.1,1.1,0.7,1.5c1.2,0.7,1.5,0.7,4,0.6
				C301.9,284.3,302.4,284.2,303.5,283.7L303.5,283.7z M326.8,283.6c0.8-0.2,2-0.7,2.6-1c0.6-0.3,1.6-0.8,2.1-1.1
				c1.2-0.6,2.1-1.5,1.9-1.8c-0.1-0.1-0.7-0.6-1.3-1c-0.6-0.4-1.4-1.1-1.8-1.4c-0.8-0.8-1-0.8-2.4,0c-1.7,1-5.5,2.9-5.8,2.9
				c-0.1,0-0.5,0.3-0.9,0.7c-0.8,0.7-0.9,1.7-0.3,2.4C321.6,284.1,324.3,284.3,326.8,283.6L326.8,283.6z M438.9,282.8
				c4.7-0.4,7.2-1.1,8.5-2.2c0.5-0.5,0.7-1.4,0.3-1.6c-0.1-0.1-0.2-0.3-0.1-0.5c0.1-0.2-0.1-0.6-0.4-1c-0.5-0.6-0.6-0.6-3.4-0.6
				c-1.6,0-3.4-0.1-4-0.1c-1.5-0.1-6.7-0.7-7.9-1c-0.5-0.1-1.7-0.4-2.8-0.5c-2-0.3-6.1-1.2-7.7-1.7c-0.8-0.2-1-0.2-1.4,0.1
				c-0.2,0.2-0.4,0.6-0.4,0.9c0,0.7-1.3,2.6-1.9,2.7c-0.7,0.1-1.3,0.9-1,1.3c0.6,1,9.8,3.8,12.2,3.8c0.5,0,1.3,0.1,1.8,0.3
				C431.4,283,436,283.1,438.9,282.8z M385.8,280.9c1.3-0.3,2.7-1,4.2-1.9c0.4-0.2,0.9-0.5,1.1-0.6c0.7-0.3,4.3-4.1,4.6-4.9
				c0.2-0.4,0.7-1.3,1.1-2c1-1.6,1.2-2.1,1.4-3.4c0.1-0.6,0.3-1.3,0.4-1.5c0.3-0.6,0.6-3.8,0.5-6.6c0-1.6,0.1-3,0.3-4.2l0.4-1.8
				l-0.9-0.8c-1.2-1-1.2-1.3,0.1-1.3c1.3,0,1.9-0.3,3.6-1.6c1.5-1.2,2-1.2,2.3-0.4c0.1,0.6,0.4,0.7,3.9,1.2c2.9,0.4,9.6,0.4,11,0
				c1.5-0.4,1.9-0.7,3-1.7c1.9-1.8,1.7-1.9-7.1-2.7c-2.6-0.2-3.5-0.3-3.7-0.5c-0.1-0.1-1.7-0.2-3.5-0.4c-2.6-0.2-3.8-0.2-5.5,0
				c-2.2,0.3-2.5,0.3-3.7,0.9c-0.4,0.2-0.9,0.4-1.3,0.4c-0.7,0.2-2.8,2.4-3.5,3.6c-0.2,0.5-0.7,1.8-0.9,2.8c-0.5,1.9-0.5,2-0.1,5.5
				c0.4,3.9,0.3,7.2-0.2,8.4c-0.2,0.4-0.4,1.1-0.6,1.6c-0.2,0.5-0.5,1.3-0.8,1.7c-0.3,0.4-0.7,1.1-0.9,1.5c-0.5,1-3.3,3.7-4,3.9
				c-0.3,0.1-0.8,0.3-1.1,0.5c-0.3,0.2-0.9,0.5-1.3,0.6c-1.3,0.2-1.4,0.4-1.4,2.3c0,1.9,0.1,2.1,0.8,1.9
				C384.3,281.2,385.1,281,385.8,280.9L385.8,280.9z M291.5,280c2.6-0.2,3.4-0.4,6.2-1.2c5.2-1.6,8.2-2.7,8.8-3
				c0.3-0.2,0.4-3,0.1-3.4c-0.1-0.2-0.8-0.4-1.4-0.5c-0.7-0.1-1.8-0.3-2.4-0.5c-1.4-0.4-1.4-0.4-5.1,0.9c-1.6,0.6-3.3,1.1-3.9,1.2
				c-0.5,0.1-1.6,0.3-2.3,0.5c-3.2,0.8-5.4,1.2-6.2,1.2c-0.8,0-1.1,0.1-1.7,0.7c-0.7,0.6-0.8,0.9-0.9,2l-0.1,1.2l0.7,0.3
				c0.8,0.3,3.7,0.8,4.7,0.9C288.2,280.2,289.9,280.1,291.5,280L291.5,280z M320.6,279.3c0.4-0.2,1.1-0.5,1.7-0.7s2-0.9,3.3-1.6
				c2.8-1.6,2.9-1.8,1.4-4c-1.1-1.7-1.6-1.9-3-1.1c-0.7,0.4-4.1,1.9-6.6,2.9c-0.5,0.2-1.7,0.6-2.6,0.9c-1.7,0.5-2.2,0.9-2,1.5
				c0.2,0.7,1.8,2.2,2.6,2.4C316.5,279.9,319.8,279.7,320.6,279.3z M338.9,279.4c0.1-0.2,0.1-0.9,0-1.5c-0.1-1.2-0.5-1.8-1.8-2.4
				c-0.5-0.2-1-0.6-1.2-0.8c-0.2-0.2-0.7-0.7-1.2-1.1c-2.1-1.9-2.9-3-3.6-4.6c-1.3-3-1.6-5.6-0.9-10c0.3-2.1,0.5-8.6,0.3-8.9
				c-0.1-0.1-0.3-0.5-0.3-0.8s-0.5-1.1-1-1.7c-1.8-2.2-5.3-3-10.1-2.3c-2.4,0.4-9.9,1-13.1,1.1c-1.3,0-2.4,0.2-2.5,0.3
				c-0.2,0.2-0.1,0.6,0.3,1.4c0.5,1,0.8,1.3,1.8,1.7c1.9,0.9,3.4,1.2,5.4,1.1c1,0,2.2-0.2,2.7-0.3c0.5-0.1,1.3-0.2,2-0.2
				c2.1,0,4.6-0.8,4.9-1.5c0.2-0.5,1.2-0.6,1.7-0.1c0.2,0.2,1,0.7,1.8,1c0.8,0.4,1.6,0.8,1.6,1c0.1,0.1-0.1,0.7-0.4,1.2
				c-0.4,0.9-0.5,1.3-0.5,5.4c0,4,0,4.7,0.5,6.7c1.1,5,2.3,7.6,4.3,10.1c1.1,1.3,2.9,3.1,3.2,3.1c0.1,0,0.5,0.2,0.7,0.5
				c0.7,0.7,3.9,2,4.8,2C338.6,279.8,338.8,279.7,338.9,279.4L338.9,279.4z M417.2,276.2c0.5-0.4,1-1.1,1.2-1.6
				c0.3-0.8,0.3-1-0.1-1.6c-0.5-1-0.9-1.2-3.8-1.9c-1.3-0.3-3.2-0.8-4.2-1.2l-1.9-0.7l-0.8,0.9c-1.3,1.4-1.9,1.6-4.6,1.6
				c-2.6,0-3,0.2-1.8,0.9c0.3,0.2,0.8,0.5,0.9,0.6c0.9,0.6,6.3,2.9,6.8,2.9c0.2,0,0.4,0.1,0.5,0.2c0.4,0.4,2.4,0.7,4.6,0.7
				C416.3,276.9,416.3,276.9,417.2,276.2L417.2,276.2z M448.4,275.6c0.6-0.1,1.7-0.3,2.3-0.4c1.2-0.2,3.3-0.7,4.3-1.1
				c1.9-0.7,2.8-1.1,4.9-2.4c1.4-0.8,1.1-1.8-1.2-4c-1.6-1.5-2.1-1.6-4.5-1c-4.3,1.2-17,1.1-21.8-0.1c-1.2-0.3-2.9-0.2-3.8,0.2
				c-0.4,0.2-1.1,0.4-1.6,0.5c-0.8,0.1-0.9,0.2-1.1,1.2c-0.1,0.6-0.3,1.3-0.4,1.5c-0.2,0.4-2.6,1.7-3.2,1.7c-0.5,0-1.6,0.4-1.6,0.7
				c0,0.2,2.7,0.9,4.5,1.2c2,0.3,2.2,0.4,3.1,0.6c2.6,0.7,7.1,1.3,11.2,1.5c1.4,0.1,2.7,0.1,2.9,0.2
				C443.2,275.9,447.3,275.8,448.4,275.6L448.4,275.6z M313.2,274.7c0.4-0.1,1.4-0.3,2.1-0.5c0.7-0.2,1.4-0.4,1.5-0.6
				s0.5-0.2,0.7-0.2s0.5-0.1,0.6-0.2c0.1-0.1,0.7-0.4,1.5-0.7c1.3-0.5,2.4-1.2,2.4-1.5c0-0.1-2.1-1.1-2.3-1.1
				c-0.1,0-0.4-0.3-0.8-0.6c-0.5-0.4-0.8-0.5-1.2-0.4c-0.8,0.2-2.9,1-3.7,1.4c-0.4,0.2-1.1,0.4-1.5,0.5c-2.4,0.5-3.8,0.9-4,1.2
				c-0.8,1.1-0.5,2.5,0.7,2.8C310.1,275,312.3,275,313.2,274.7L313.2,274.7z M374.4,274.8c0.6,0,0.7-0.1,0.7-0.7
				c0-0.8-0.6-1.1-1.4-0.6c-0.7,0.5-1.8,0.2-2.6-0.7c-0.8-0.8-1.1-0.9-1.5-0.4c-0.3,0.4-1.6,0.4-2.3,0.1c-0.3-0.1-0.8-0.5-1.1-0.8
				c-0.7-0.7-1.1-0.6-1.8,0.6c-0.8,1.2-1.2,1.4-2.3,1.1c-0.7-0.2-1-0.5-1.7-1.4c-0.5-0.7-0.9-1.2-1.2-1.2c-0.2,0-0.8,0.7-1.4,1.5
				c-0.9,1.2-1.2,1.5-1.6,1.5c-0.6,0-2.3-1-2.3-1.4c0-0.3-0.7-1-0.9-1c-0.1,0-0.6,0.4-1,0.9s-1.3,1.1-1.8,1.3l-1,0.5l-0.6-0.6
				c-0.7-0.7-0.8-0.7-1.5-0.1c-0.5,0.5-0.7,1.2-0.3,1.3C347,274.8,372.9,274.8,374.4,274.8L374.4,274.8z M285,274
				c1-0.1,1.9-0.3,2.1-0.4c0.2-0.1,0.7-0.2,1.1-0.2c0.7,0,3.2-0.6,4.7-1.1c0.4-0.1,1.4-0.4,2.2-0.6c0.9-0.2,1.8-0.5,2.1-0.6
				s0.8-0.3,1.1-0.3c0.8-0.2,1.6-0.9,1.4-1.2c-0.1-0.2-0.2-0.6-0.2-1.1c0-0.7-0.1-0.8-1.2-1.1c-1.5-0.5-2.1-0.7-3.3-1.7l-1-0.8
				l-2,0.4c-1.1,0.2-2.3,0.4-2.7,0.5c-0.4,0-1.7,0.2-3,0.4c-3.5,0.5-11.1,0.4-14.1-0.2c-2.1-0.4-2.3-0.4-2.9-0.1
				c-0.8,0.4-1.8,1.6-1.9,2.5c-0.1,0.6,0,0.8,0.7,1.6c1.2,1.4,4.1,3.2,5.8,3.6c0.3,0.1,0.9,0.3,1.3,0.4
				C277.3,274.5,281.2,274.5,285,274L285,274z M351.1,271.5c1.2-1.3,1.2-1.8,0.2-2.4c-0.7-0.4-0.8-0.4-1.2-0.1
				c-0.5,0.3-1.1,1.7-1.1,2.6c0,0.4,0.5,0.9,1,0.9C350.1,272.5,350.6,272.1,351.1,271.5z M356.8,271.8c0.7-0.8,0.7-1.7,0.1-2.5
				c-0.2-0.3-0.6-0.9-0.7-1.4s-0.5-0.9-0.7-1.1c-0.3-0.2-0.5-0.1-1,0.5c-0.5,0.6-0.6,1-0.6,1.9c0,0.9,0.1,1.3,0.8,2.2
				C355.6,272.7,356,272.8,356.8,271.8L356.8,271.8z M373.6,272c0.4-0.7,0.3-3.5-0.1-4.5c-0.4-1-1-1.1-1.9-0.1c-0.9,1-1,2.9-0.1,4.2
				C372.1,272.7,373.1,272.9,373.6,272L373.6,272z M363.6,271.4c0.9-1.2,0.8-1.6-0.1-2.5c-0.4-0.4-0.8-0.8-0.8-0.9
				c0-0.4-1-1.2-1.2-1c-0.4,0.3-1.4,1.9-1.4,2.3c0,0.6,1.5,2.7,1.9,2.9C362.8,272.4,362.9,272.3,363.6,271.4z M368.9,271.3
				c0.6-0.6,0.8-1.2,0.9-2.4c0.1-1,0.1-1.2-0.4-1.8c-0.8-1-1.8-0.9-2.3,0.2c-0.2,0.4-0.6,0.9-0.9,1.2c-0.6,0.6-0.4,1.4,0.6,2.4
				C367.7,271.7,368.4,271.9,368.9,271.3L368.9,271.3z M422.9,270.5c1.5-0.5,2.5-1.7,1.9-2.5c-0.3-0.4-1-0.6-3.4-0.7
				c-1.3,0-3-0.2-3.6-0.4c-1.4-0.4-2.1-0.5-3.5-0.7c-0.8-0.1-1,0-1.7,0.4c-0.4,0.3-0.8,0.6-0.9,0.6s-0.6,0.3-1.1,0.6
				c-0.6,0.4-0.8,0.6-0.7,0.8c0.5,0.5,3.8,1.4,8.3,2.3C419.3,271.1,421.5,270.9,422.9,270.5L422.9,270.5z M310.3,270.1
				c2.7-0.7,7-2.4,7.6-2.8c0.2-0.2,0.4-0.4,0.3-0.5c0-0.1-0.7-0.4-1.6-0.7c-0.8-0.3-1.9-0.8-2.3-1.1c-0.7-0.5-0.9-0.6-1.7-0.5
				c-0.5,0.1-1.2,0.3-1.7,0.6s-1.2,0.5-1.6,0.6c-0.4,0.1-1,0.3-1.2,0.5c-0.2,0.2-0.7,0.3-1,0.3c-0.3,0-1.2,0.2-1.9,0.4
				s-1.8,0.5-2.3,0.5c-1.5,0-1.8,0.3-1.8,1.3c0,1,0.2,1.2,1.9,1.8C305.1,270.9,307.5,270.9,310.3,270.1L310.3,270.1z M405.2,270.5
				c0.6-0.3,1.5-1.1,1.5-1.3c0-0.4-1-1.1-1.6-1.1c-0.3,0-1.2-0.2-1.9-0.4c-1.3-0.3-2.9-0.7-3.2-0.7c-0.5,0-1.2,2.5-0.9,3.1
				c0.1,0.1,0.5,0.4,0.8,0.5C400.9,270.8,404.7,270.8,405.2,270.5L405.2,270.5z M325,269.5c0.4-0.4,0.3-0.5-0.4-1.9l-0.7-1.5l-1.1,0
				c-2,0-2.9,0.3-3.2,0.9c-0.2,0.5-0.2,0.6,0,1.1C320.4,269.5,324.1,270.4,325,269.5L325,269.5z M359.2,268.6
				c0.2-0.2,0.7-1.5,1.2-2.8l0.8-2.4l-0.4-0.7c-0.2-0.4-0.6-0.7-0.8-0.8c-0.2,0-0.8,0.3-1.4,0.8c-0.6,0.5-1.3,1-1.7,1.2
				c-0.5,0.3-0.6,0.5-0.6,1.2c0,0.8,0.8,2.9,1.4,3.5C358,269.1,358.8,269.1,359.2,268.6L359.2,268.6z M365.6,267.5
				c0.3-0.3,0.9-1.1,1.3-1.8c0.8-1.3,0.8-2.2,0-3.2c-0.6-0.8-1.2-0.7-1.7,0.1c-0.6,1.1-1.6,2-2.2,1.8c-0.3-0.1-0.6,0-0.7,0.2
				c-0.3,0.4,0.1,1.3,1.1,2.6C364.2,268.3,364.8,268.3,365.6,267.5L365.6,267.5z M353.4,267.2c0.4-0.4,0.9-1.1,1.2-1.6
				c0.5-0.9,0.7-2.6,0.4-2.9c-0.4-0.4-1,0.2-1.9,1.6C351.4,267.1,351.6,269,353.4,267.2L353.4,267.2z M410.2,266.9
				c1.3-0.7,2-1.7,1.9-2.6c-0.1-1.1-0.4-1.3-3.3-1.4c-1.4-0.1-3.3-0.3-4.2-0.4c-0.9-0.2-2.2-0.4-2.8-0.4c-1.1,0-1.2,0-1.2,0.5
				c0,0.3-0.2,1.1-0.3,1.7c-0.3,1.4-0.1,1.8,1.1,2c0.4,0.1,1.4,0.3,2,0.5C407.4,267.8,408.5,267.8,410.2,266.9L410.2,266.9z
				 M427.2,266.1c0.8-0.2,1.4-0.5,2-1c1-0.9,1.2-1.5,0.7-2.1c-0.4-0.4-0.6-0.5-3.1-0.4c-3.7,0-7.1-0.5-10.8-1.7
				c-1.6-0.5-2.1-0.4-2.8,0.5c-0.6,0.8-0.7,1.7-0.4,1.9c0.1,0.1,0.3,0.4,0.3,0.8c0.2,0.8,0.6,1.1,2.4,1.4c0.7,0.1,1.9,0.3,2.5,0.4
				c1.5,0.3,5.7,0.6,7,0.5C425.6,266.4,426.6,266.2,427.2,266.1L427.2,266.1z M452.6,266c0.8-0.2,2-0.4,2.6-0.5
				c2.4-0.4,4.2-1.3,7.7-3.4c2.6-1.6,2.9-2.1,1.8-3.6c-1.2-1.6-1.9-1.7-5.2-0.7c-3.2,1-11.7,1.4-16.5,0.8c-1.2-0.2-3.1-0.4-4.2-0.5
				c-1.1-0.1-2.4-0.3-2.8-0.4c-0.8-0.1-0.8-0.1-1.4,1.1c-0.5,1-1.6,2.2-2.1,2.2c-0.1,0-0.5,0.3-0.8,0.6c-0.6,0.6-0.6,0.8-0.5,2.1
				l0.1,1.5l1.6,0.3c1.6,0.3,5.1,0.7,7.4,0.8C442.8,266.6,451.1,266.3,452.6,266L452.6,266z M303.9,265.9c0.8-0.2,1.5-0.4,1.7-0.4
				s0.9-0.2,1.5-0.4c0.6-0.2,2-0.7,3-1s2.1-0.8,2.4-0.9c0.5-0.4,0.6-1.1,0.1-1.2c-0.2-0.1-0.6-0.6-1-1.1c-0.9-1.3-1.3-1.4-2.9-0.8
				c-4.5,1.4-6.9,1.9-10.2,1.9c-2.3,0-2.6,0.1-2.9,0.4c-1,1.4,0.5,3.2,3.3,3.9C300.2,266.4,302.5,266.3,303.9,265.9L303.9,265.9z
				 M371.8,265.7c0.5-0.5,0.6-0.8,0.6-1.6c0-1.2-0.7-2.1-1.4-1.8c-0.2,0.1-0.4,0.4-0.4,0.5s-0.4,0.5-0.9,0.8c-1.1,0.6-1.1,1.1-0.2,2
				C370.4,266.5,371,266.5,371.8,265.7L371.8,265.7z M284.8,265c0.6-0.1,2.1-0.3,3.2-0.5c2.4-0.3,5.5-1,5.9-1.4
				c0.1-0.1,0.3-0.6,0.4-1.1c0.2-0.9,0.2-0.8-1.4-2c-0.7-0.5-1.2-1.1-1.5-1.9c-0.3-0.6-0.7-1.2-0.9-1.2c-0.2,0-0.9,0-1.6,0.1
				c-0.7,0.1-3.5,0.2-6.3,0.2l-5.1,0l-0.1-0.5c-0.1-0.5-0.1-0.5,3.3-0.5c1.8,0,3.4,0,3.5-0.1s1.1-0.2,2.1-0.2
				c3.7-0.3,5.9-0.5,7.4-0.9c0.8-0.2,2.4-0.4,3.6-0.6s2.5-0.3,3-0.4c0.5-0.1,1.7-0.3,2.7-0.4c2.3-0.3,4.8-1,4.8-1.4
				c0-0.2-0.7-0.6-1.7-0.9c-2-0.7-3.1-1.7-3.9-3.4c-0.4-0.8-0.7-1.3-1.1-1.3c-0.3-0.1-2.6-0.1-5.1-0.1c-4.8,0-16.5-0.3-16.8-0.4
				c-0.1,0-1.8-0.1-3.9-0.2c-2.1-0.1-5.3-0.3-7.3-0.5c-6.1-0.5-8.4-0.4-10.7,0.8c-1.6,0.8-1.5,1.6,0.6,3.9c2.1,2.3,5.3,4.3,7.6,4.8
				c0.5,0.1,1.5,0.4,2.2,0.5c1.2,0.3,1.7,0.4,5.1,0.7c2.5,0.2,3.3,0.5,3.3,1c0,0.4-0.1,0.5-1.9,0.3c-2.3-0.2-6.6-0.9-7.9-1.4
				c-2.4-0.8-5.1,0.1-5,1.8c0,0.8,1.6,2.6,3.5,4c2.9,2.2,4.9,2.8,10.7,3.4C277.6,265.4,283.4,265.3,284.8,265L284.8,265z
				 M322.6,264.7c0.8-0.4,0.9-0.5,1-1.6c0.1-1,0-1.2-0.5-1.5c-0.5-0.3-0.7-0.3-1.7,0c-0.6,0.2-2.1,0.4-3.4,0.5
				c-3.2,0.2-3.3,0.2-3.3,1.1c0,0.6,0.1,0.8,0.8,1.2c1.2,0.7,1.9,0.9,4.1,0.8C321.2,265.1,321.9,265,322.6,264.7L322.6,264.7z
				 M364.3,261.9c0.7-1.3,0.7-1.4,0.5-2.6c-0.1-0.7-0.3-1.5-0.3-1.8s-0.3-1.1-0.6-1.7c-0.4-1-0.5-1.2-0.2-1.5c0.5-0.6,1-0.4,1.3,0.4
				c0.1,0.4,0.4,1.5,0.6,2.6c0.2,1,0.5,2.2,0.8,2.7c0.5,1.1,2.3,2.8,2.9,2.8c0.2,0,0.7-0.4,1-0.9c0.5-0.8,0.6-1.1,0.6-2.8
				c0-1.7-0.4-3.6-1.1-5c-1.3-2.6-2-3.6-2.6-3.6c-0.4,0-0.4,0.2-0.1,1c0.2,0.4,0.2,0.6-0.1,0.9c-0.4,0.4-0.3,0.8,0.6,1.6
				c0.6,0.5,0.7,1.1,0.3,1.6c-0.4,0.4-1.5-0.7-1.5-1.4c0-0.8-2.1-3.6-4.4-5.9c-1.5-1.5-2.3-2.1-2.5-2c-0.2,0.1-0.9,0.2-1.7,0.3
				c-0.8,0.1-1.5,0.2-1.5,0.3s0.1,0.7,0.5,1.4c0.4,0.7,0.7,1.8,0.8,2.7c0.2,1.5,0.1,1.8-0.7,1.8c-0.7,0-0.8,0.6-0.8,3.9
				c0,1.8-0.1,3.6-0.1,3.9c-0.1,0.7,0.4,2.3,0.8,2.4c0.4,0.1,1.8-1.4,2.3-2.3c0.2-0.5,0.3-1,0.2-1.6c-0.1-0.6,0-1,0.2-1.3
				c0.6-0.8,0.9-0.6,1.1,0.8c0.2,1.6,0.5,2.5,1.5,3.9C362.9,263.7,363.3,263.6,364.3,261.9L364.3,261.9z M411.5,261.6
				c0.8-0.6,1.8-2.3,1.8-3.1c0-1.4-0.4-1.5-4.6-1.7c-2-0.1-4.5-0.3-5.6-0.4c-2.3-0.3-2.4-0.2-2.6,1.9c-0.2,2.2,0.1,2.6,1.9,2.8
				c0.8,0.1,2.1,0.3,2.9,0.5C407.5,262,410.9,262,411.5,261.6L411.5,261.6z M431.7,260.5c1.9-1.2,2.5-2.4,1.5-3.1
				c-0.5-0.3-6.1-1.4-8.8-1.7c-0.8-0.1-2.1-0.3-3-0.5s-2.3-0.4-3.1-0.4c-1.3,0-1.6,0-2.4,0.5c-0.5,0.3-1,0.6-1.3,0.7
				c-0.4,0.1-0.4,0.3-0.4,1.5c0,1.6,0.5,2.3,2,2.5c0.5,0.1,1.4,0.3,2,0.5c2,0.6,5.3,0.9,8.8,0.8l3.4-0.1L431.7,260.5L431.7,260.5z
				 M320.5,260.6c0.8-0.2,1.7-0.4,2-0.4c0.9,0,1-0.3,0.8-1.6c-0.4-2.2-0.4-2.3-1.3-2.2c-0.4,0-1.8,0.2-3.1,0.4s-3.1,0.4-4.1,0.4
				c-1,0-1.9,0.1-2,0.2c-0.1,0.1-0.4,0.5-0.5,0.9c-0.3,1,0.2,2.3,1.2,2.7C314.4,261.3,318.6,261.1,320.5,260.6L320.5,260.6z
				 M302.1,260.3c0.8-0.1,2-0.4,2.7-0.6c0.7-0.2,1.7-0.5,2.3-0.6c0.6-0.2,1.4-0.4,1.8-0.5s1-0.3,1.3-0.4c0.4-0.1,0.8-0.4,0.9-0.6
				c0.2-0.3,0.1-0.6-0.9-1.4c-0.6-0.6-1.3-1.3-1.5-1.7c-0.5-0.7-1.2-0.8-3-0.2c-0.7,0.2-1.6,0.4-2,0.4c-0.4,0-1.1,0.1-1.4,0.2
				c-0.4,0.1-1.5,0.3-2.6,0.5c-5.2,0.7-6.4,0.9-6.8,1.3c-0.5,0.5-0.3,1.2,0.8,2.2C295.2,260.7,297.7,261.1,302.1,260.3z M453,257.7
				c3.2-0.2,7.9-1.1,9.3-1.6c0.4-0.2,1-0.3,1.2-0.3c0.2,0,0.8-0.3,1.4-0.7c0.5-0.4,1.2-0.8,1.4-0.9c2.5-1.5,4.5-3.3,4.5-3.9
				c0-0.5-1.4-1.6-2.6-2.1c-2.1-0.8-3.8-0.8-12.8-0.1c-3.5,0.3-14.1,0.3-18.7,0.1c-7.2-0.4-7.5-0.4-8.9-0.6l-1.3-0.1l-1.9,1.8
				c-2,1.9-3.2,2.6-4.9,2.8c-1.3,0.2-2,0.5-2,0.9c0,0.6,1,0.9,3,1.1c1.1,0.1,2.6,0.3,3.3,0.5c0.7,0.2,1.7,0.3,2.2,0.3
				c0.5,0,1.5,0.2,2.1,0.3c0.7,0.2,1.8,0.4,2.4,0.5c0.7,0.1,2,0.3,3,0.5c1,0.2,2.7,0.5,3.8,0.6s2.2,0.3,2.5,0.3
				c0.3,0,2.2,0.2,4.3,0.4c2.1,0.2,3.8,0.4,3.8,0.4s0.5,0.1,0.9,0C449.5,258,451.3,257.8,453,257.7L453,257.7z M319.5,255.5
				c0.6-0.1,1.6-0.3,2.2-0.5c0.6-0.1,1.2-0.4,1.4-0.5c0.2-0.2,0.4-1,0.4-1.8c0.1-1.4,0.1-1.6-0.4-1.9c-0.6-0.4-1.1-0.3-4.1,0.3
				c-2.4,0.5-6.6,1.1-7.5,1.1c-0.7,0-1.1,0.1-1.5,0.5c-0.5,0.5-0.5,0.6-0.2,1.2c0.4,0.9,1.1,1.5,2,1.8
				C312.8,255.9,318,255.8,319.5,255.5z M414.3,255.2c1.4-0.6,1.6-0.8,1.8-1.7c0.3-1-0.5-1.3-3.5-1.3c-2.8,0-6.3-0.3-7.4-0.7
				c-1.4-0.5-3.5,0.2-4.2,1.2c-0.4,0.6-0.3,2.2,0.2,2.5c0.4,0.2,3.8,0.5,7.9,0.5C412.9,255.7,413.1,255.7,414.3,255.2L414.3,255.2z
				 M353.4,250.1c0-0.2-0.4-0.6-0.8-0.9c-0.5-0.4-1.5-1.3-2.3-2.1c-1.2-1.1-1.6-1.6-1.9-2.6c-0.5-1.7-1.1-1.9-3.8-1.6
				c-1.8,0.2-2,0.3-2.8,1.1c-1.3,1.4-1.9,3.1-1.2,3.7c0.3,0.3,1,0.1,1-0.2c0-0.4,1.4-0.9,2.7-0.9c1.4,0,1.4,0,3.8,2
				c0.6,0.5,1.3,0.9,1.4,0.9s0.6,0.2,1,0.4C351.4,250.5,353.4,250.6,353.4,250.1z M355.7,249.1c0-0.4-0.3-1.1-0.7-1.5
				c-1.1-1.4-2-2.9-2.2-3.5c-0.4-1.5-2.2-2.4-3.1-1.4c-0.4,0.4-0.4,0.5,0,1.6c0.3,0.9,0.9,1.6,2.8,3.5
				C355.2,250.2,355.8,250.5,355.7,249.1L355.7,249.1z M346.5,249c0.1-0.3-0.2-0.5-1.2-1c-1.4-0.7-2.2-0.6-2.3,0.1
				c-0.1,0.4,0.1,0.6,0.6,0.7C345.4,249.6,346.4,249.6,346.5,249L346.5,249z M363.8,247c0.3-0.2,0.7-0.3,1.1-0.2
				c0.7,0.2,1.4,0,1.4-0.4c0-0.4-0.5-0.6-1.9-1.1c-1.2-0.4-2.4-1-4-2c-0.6-0.4-1.5-0.8-2-1c-0.5-0.2-1.1-0.4-1.3-0.6
				s-0.6-0.3-0.7-0.3c-0.2,0-0.7-0.2-1.1-0.4c-0.8-0.4-1.3-0.3-1.7,0.4c-0.3,0.5,0.1,1.1,1,1.3c0.7,0.1,3.7,1.5,4.3,2
				c0.1,0.1,0.8,0.3,1.4,0.4s1.2,0.4,1.2,0.5c0,0.1,0.1,0.5,0.2,0.8C361.9,247.3,362.9,247.6,363.8,247L363.8,247z M355.8,244.5
				c0.1-0.4-0.3-0.7-0.9-0.7c-0.4,0-0.5,0.7-0.2,1C355,245,355.7,244.9,355.8,244.5z"/>
		</g>
	</g>
</g>
</svg>
