<?xml version="1.0" encoding="utf-8"?>
<!-- Generator: Adobe Illustrator 19.2.1, SVG Export Plug-In . SVG Version: 6.00 Build 0)  -->
<svg version="1.1" id="Layer_1" xmlns="http://www.w3.org/2000/svg" xmlns:xlink="http://www.w3.org/1999/xlink" x="0px" y="0px"
	 width="210px" height="150px" viewBox="0 0 210 150" style="enable-background:new 0 0 210 150;" xml:space="preserve">
<style type="text/css">
	.st0{opacity:0;fill:#FFFFFF;}
	.st1{fill:#1A374F;}
	.st2{fill:#F3C463;}
</style>
<rect class="st0" width="210" height="150"/>
<g id="g3068" transform="translate(-147.9375,-388.5625)">
	<path id="path7629" class="st1" d="M252.9,388.6c-15.1,41.8-42.1,78-76.9,104.3v45.7c30-18.2,56.2-42.1,76.9-70.3c20.7,28.2,46.8,52.2,76.9,70.3v-45.7C295,466.5,268,430.4,252.9,388.6z"/>
	<path id="path7627" class="st2" d="M252.9,415.6c-16.1,32.6-39.5,60.9-68.1,82.9v21.1c26.9-18.7,50.1-42.4,68.1-69.8c18,27.4,41.2,51.1,68.1,69.8v-21.1C292.5,476.5,269.1,448.2,252.9,415.6z"/>
</g>
</svg>
