<?xml version="1.0" encoding="utf-8"?>
<!-- Generator: Adobe Illustrator 19.2.1, SVG Export Plug-In . SVG Version: 6.00 Build 0)  -->
<svg version="1.1" id="Layer_1" xmlns="http://www.w3.org/2000/svg" xmlns:xlink="http://www.w3.org/1999/xlink" x="0px" y="0px"
	 width="210px" height="150px" viewBox="0 0 210 150" style="enable-background:new 0 0 210 150;" xml:space="preserve">
<style type="text/css">
	.st0{opacity:0;fill:#FFFFFF;}
	.st1{fill:#1A374F;}
	.st2{fill:none;stroke:#F3C463;stroke-width:0.1559;}
	.st3{fill:#F3C463;}
	.st4{fill:#F3C463;stroke:#F3C463;stroke-width:0.1559;}
</style>
<rect class="st0" width="210" height="150"/>
<g id="g3023" transform="translate(-3.283,-0.5395)">
	<path id="path6"  class="st1" d="M43.9,63.2c29.2,22.1,51.7,52.3,64.4,87.4
		c12.6-35,35.2-65.3,64.4-87.4c0-35.4-29.2-62.7-64.4-62.7S43.9,27.9,43.9,63.2C43.9,63.2,43.9,63.2,43.9,63.2z"/>
	<g id="g3284">
		<path id="path8"  class="st2" d="M75.5,66.7L75.5,66.7L75.5,66.7z M94.3,73
			C94.3,73,94.3,73,94.3,73"/>
		<path id="path10"  class="st3" d="M76.9,62.1c0.4,0,0.8-0.3,0.8-0.8c0-0.4-0.3-0.8-0.8-0.8
			c-0.4,0-0.8,0.3-0.8,0.8C76.1,61.8,76.4,62.1,76.9,62.1L76.9,62.1z"/>
		<path id="path12"  class="st3" d="M73.4,61c0.3,0,0.6-0.3,0.6-0.6c0-0.3-0.3-0.6-0.6-0.6
			c-0.3,0-0.6,0.3-0.6,0.6C72.8,60.7,73,61,73.4,61L73.4,61z"/>
		<path id="path14"  class="st3" d="M77.1,64.3c0.4,0,0.8-0.4,0.8-0.8c0-0.4-0.4-0.8-0.8-0.8
			s-0.8,0.4-0.8,0.8C76.3,63.9,76.7,64.3,77.1,64.3L77.1,64.3z"/>
		<path id="path16"  class="st3" d="M73.6,67c0.3,0,0.6-0.3,0.6-0.6c0-0.3-0.3-0.6-0.6-0.6
			c-0.3,0-0.6,0.3-0.6,0.6C73,66.8,73.2,67,73.6,67L73.6,67z"/>
		<path id="path18"  class="st3" d="M75.8,67c0.3,0,0.5-0.2,0.5-0.5c0-0.3-0.2-0.5-0.5-0.5
			c-0.3,0-0.5,0.2-0.5,0.5C75.3,66.8,75.5,67,75.8,67L75.8,67z"/>
		<path id="path20"  class="st2" d="M75.8,67c0.3,0,0.5-0.2,0.5-0.5c0-0.3-0.2-0.5-0.5-0.5
			c-0.3,0-0.5,0.2-0.5,0.5C75.3,66.8,75.5,67,75.8,67L75.8,67z"/>
		<path id="path22"  class="st3" d="M79.8,67.4c0.4,0,0.8-0.3,0.8-0.8c0-0.4-0.3-0.8-0.8-0.8
			S79,66.2,79,66.6S79.4,67.4,79.8,67.4C79.8,67.4,79.8,67.4,79.8,67.4z"/>
		<path id="path24"  class="st2" d="M81.1,68.4c0.5,0,0.8-0.4,0.8-0.8s-0.4-0.8-0.8-0.8
			c-0.5,0-0.8,0.4-0.8,0.8S80.6,68.4,81.1,68.4L81.1,68.4z"/>
		<path id="path26"  class="st3" d="M82.6,69.3c0.5,0,0.8-0.4,0.8-0.8c0-0.5-0.4-0.8-0.8-0.8
			c-0.5,0-0.8,0.4-0.8,0.8C81.8,68.9,82.2,69.3,82.6,69.3L82.6,69.3z"/>
		<path id="path28"  class="st3" d="M80.2,69.8c0.4,0,0.8-0.3,0.8-0.8c0-0.4-0.3-0.8-0.8-0.8
			c-0.4,0-0.8,0.3-0.8,0.8C79.5,69.5,79.8,69.8,80.2,69.8L80.2,69.8z"/>
		<path id="path30"  class="st2" d="M99.9,43.5l0.1,0 M118.8,40.2
			C118.8,40.2,118.8,40.3,118.8,40.2 M129.9,21.9L129.9,21.9 M127.9,57.1C127.9,57.1,127.9,57.1,127.9,57.1 M117.2,61.8L117.2,61.8"
			/>
		<polygon id="polygon32" class="st3" points="134.3,62.4 134.1,59.9 134.1,59.9 132.7,62.1 		"/>
		<polygon id="polygon34" class="st3" points="141.9,55.5 142.3,53 142.3,53 140.4,54.8 		"/>
		<polygon id="polygon36" class="st3" points="143.7,56.8 144.3,54.4 144.3,54.4 142.2,56 		"/>
		<polygon id="polygon38" class="st3" points="136.3,60.3 136.3,57.8 136.3,57.8 134.7,59.8 		"/>
		<polygon id="polygon40" class="st3" points="138.9,67.7 140.4,65.7 140.4,65.7 137.9,66.5 		"/>
		<polygon id="polygon42" class="st3" points="140.9,65.7 142.2,63.6 142.2,63.6 139.8,64.5 		"/>
		<polygon id="polygon44" class="st3" points="143.5,61.7 144.8,59.5 144.8,59.5 142.4,60.5 		"/>
		<polygon id="polygon46" class="st3" points="143.5,59.8 144.4,57.5 144.4,57.5 142.2,58.8 		"/>
		<polygon id="polygon48" class="st3" points="138.3,58 138.4,55.5 138.4,55.5 136.7,57.4 		"/>
		<polygon id="polygon50" class="st3" points="138.6,60 139,57.5 139,57.5 137.1,59.3 		"/>
		<polygon id="polygon52" class="st3" points="140.8,59.3 141.3,56.9 141.3,56.9 139.3,58.6 		"/>
		<polygon id="polygon54" class="st3" points="138.8,63.1 139.6,60.7 139.6,60.7 137.4,62.2 		"/>
		<polygon id="polygon56" class="st3" points="140.8,63.2 141.7,60.9 141.7,60.9 139.5,62.2 		"/>
		<path id="path58"  class="st2" d="M133.5,62.3l-1.4,7.2 M135.5,60.1l-3.1,9.5 M137.5,57.8
			l-5,11.9 M138.1,62.7l-5,7.5 M138.3,66.9l-4.5,3.7 M140.4,65.1l-1.2,0.9 M138.5,67.1l-4.6,3.6 M142.9,61.1l-9.3,9.4 M140.1,62.7
			l-6.6,7.8 M142.9,59.3l-1.7,1.8 M140.1,58.9l-1.6,2.6 M137.9,62.5l-4.9,7.5 M141.2,55.2l-2.4,4.5 M138.5,60l-5.7,10 M137.9,59.7
			l-5.2,10.2 M143,56.4l-3.8,5.6 M138.6,63l-5.3,7.3 M140,62.5l-6.6,7.8 M126.1,79.6h-1l1.5-2.2l1.2-0.4l-0.1,1.2"/>
		<polygon id="polygon60" class="st3" points="125.6,76.8 125.6,76.8 125.3,77.9 123.4,80 123.4,78.9 122.4,78.8 124.4,77 		"/>
		<polygon id="polygon62" class="st3" points="129.3,78.1 129.3,78.1 129.4,79.3 128.3,81.8 127.9,80.9 127,81.1 128.2,78.7 		"/>
		<polygon id="polygon64" class="st3" points="126.4,76.6 126.4,76.6 125.3,77 123.5,79.1 124.5,79 124.7,79.9 126.4,77.8 		"/>
		<polygon id="polygon66" class="st3" points="130.4,78.4 130.4,78.4 130.8,79.5 130.2,82.2 129.6,81.4 128.8,81.8 129.5,79.2 		"/>
		<path id="path68"  class="st2" d="M127.8,77l1.5-2.1 M126.7,77.3l2.5-2.7 M125.6,76.8l3.3-2.8
			 M125.4,75.7l3.5-2.1 M127.9,78.1l1.7-2.9 M129.3,78.1l1-2.5 M130.4,78.4l0.5-2.6 M100.7,78.4L100.7,78.4 M104.7,81.3L104.7,81.3
			 M109.1,83.1L109.1,83.1 M85.2,68.7C85.2,68.7,85.1,68.7,85.2,68.7"/>
		<path id="path70"  class="st3" d="M76.3,66.8l-0.9-0.1c-0.9,0-1.9,0.2-2.9,1.2c0,0,1.1,1.1,2.5,1
			c-0.6,0.5-1.2,1.1-1.5,2c0,0,3.2,0.9,6.1-2.1l0,0.1l0.4-0.6c-0.7-0.7-1.7-0.6-1.7-0.6S77.4,67,76.3,66.8
			C76.3,66.8,76.3,66.8,76.3,66.8z"/>
		<path id="path72"  class="st4" d="M80.7,69.8l-1-0.2c0,0-3.8,0.3-3.9,4.9c0,0,1.2-0.2,2.4-1.1
			c0,0-0.2,2.8,0.1,3.2C78.3,76.6,81.7,74.5,80.7,69.8C80.7,69.8,80.7,69.8,80.7,69.8z"/>
		<polygon id="polygon74" class="st4" points="126.1,79.6 125.1,79.6 126.6,77.4 127.8,77 127.7,78.2 127.7,78.2 127.9,78.1 
			127.9,79.2 126.6,81.7 126.4,80.7 125.4,80.9 		"/>
		<polygon id="polygon76" class="st4" points="124.5,76.9 122.6,78.4 122.6,78.4 122.8,77.3 121.8,77 124.1,75.6 125.3,75.7 
			124.8,76.7 		"/>
		<path id="path78"  class="st3" d="M102.3,39l0.1,0.8c-0.2,0.1,0.1,2.5,0.1,2.5
			c-0.3,0.7-2,1.1-2.5,1.1c-0.9,0.2-1.1-1.3-1.1-1.3c-0.1-0.9-1.7-2-1.7-2c-0.3-0.7-0.2-1,0-1.1c0,0,1.9-0.8,1.7-1.4
			c-2.3-3.2-8.3-6.6-12.8-7.1c-0.3,0-0.3-0.5-0.3-0.6c0-0.1-0.1-1.5-0.2-2.2c-0.1-0.2-1.5-1.1-1.7-1.4c-0.3-0.3-0.3-0.4-0.4-0.9
			c-0.1-0.4,0.2-1.4,0.2-1.4c0.1-0.1,1-2.8,1-2.8c0-0.4,0.1-0.7,0.4-1c0.4-0.3,0.8-0.1,1-0.1c0.4,0.1,0.5,0.5,0.6,0.9v0.1l-0.5,2.3
			c1.2,0.8,3.6,2,3.8,2.2c0.1,0.1,0.1,0.3,0.1,0.4l-0.2,2.2c7.1,1.9,11.4,7,12.2,8.8c0,0-1.7,1.9-2.2,2c0,0-0.1,0.6-0.8,0.5
			c1.7,1.3,1.9,3.4,1.9,3.4s0.2-0.4,0.3-2.5C101.2,40.4,101.2,39.2,102.3,39C102.3,39,102.3,39,102.3,39z"/>
		<path id="path80"  class="st3" d="M104,46.7c-0.6-1.9,0.2-4.6,0.2-4.6c0.3-0.7,0.3-2.7,0.3-2.7
			l1.6,0.4c0,0-0.1,1.5-0.2,1.9c0,0-0.8,1.8-0.5,3.3L104,46.7L104,46.7z"/>
		<path id="path82"  class="st3" d="M101.7,50.5L101.7,50.5c-0.5-0.9,3.6-5.4,3.6-5.4
			c1.4-0.8,1.6-3.5,1.6-3.5c-0.2,0-1-0.7-1-0.7l-1.6-0.6c-0.3-0.3-1.2-0.3-1.4-0.3c-0.3,0.3-0.3,0.7-0.3,0.7s-1.2-2.8,1.3-3
			c2.6-0.2,1.7,0.1,2.4-0.2c0.6-0.3-0.1-0.9,1.7-0.7c1.8,0.2,4.3,1,5.4,2c0.9,0.8-0.1,0.6-0.1,0.6s0.4,0.8-0.1,3.1
			c-0.4,2.1,0.1,2.9,0.2,3.1c0,0,2.2,4.8,1.9,5.1h1.1v1.4c7.2-0.6,6.8-7,3.8-9.2c0,0-0.6-1.4-0.1-2.1c0.6-0.7,9.8-12.4,21.2-14
			c0,0-0.1,0.8-0.7,1.4c0,0-2.2,1.4-4.9,3c0,0,2-1.1,2.6,0c0.4,0.9-1.5,2.2-4,3.6l0.1,0c1.1-0.2,2,0.4,2,0.4
			c0.2,0.7-1.3,1.7-3.4,2.6c0.9,0.1,1.6,1,1.6,1c0.1,0.4-0.4,0.9-1.3,1.3c0.8-0.1,1.7,1.1,1.7,1.1c0.2,0.1-0.8,1.4-0.8,1.4
			c-0.1,0-0.2,0.1-0.3,0.1c0.6,0.1,1.1,0.8,1.1,1.1c0,0.3-0.3,0.6-0.9,0.9c-0.1,0-0.2,0.1-0.5,0.1l0.1,0.1c0.6,0.1,1.2,1.2,1.2,1.2
			s-0.1,0.3-0.9,0.7c-0.1,0.1-0.5,0.1-1,0.1l0.2,0.1c0.9,0.1,1.3,1.2,1.3,1.2c0,0.5-1.4,0.9-1.4,0.9c-0.2,0-0.4,0-0.6,0l0.1,0
			c0.9,0.4,1.1,1.6,1.1,1.6c-0.7,0.9-1.8,0.7-1.8,0.7c-0.2,0-0.3,0-0.6-0.1c1.2,0.7,1.2,1.7,1.2,1.7c-0.7,0.7-1.7,0.6-1.7,0.6
			c-0.1,0-0.3-0.1-0.4-0.1c0.8,0.4,0.7,1.7,0.7,1.7c-0.6,0.4-1.5,0.2-1.5,0.2c-0.1,0-0.2-0.1-0.4-0.2c0.6,0.3,0.4,1.8,0.4,1.8
			c-1.1,0.2-1.7,0-1.7,0l-0.1,0c0.4,0.6,0.1,1.8,0.1,1.8c-0.2,0.1-1.4-0.2-1.4-0.2c-0.1,0-0.3-0.1-0.4-0.3c0.4,0.3,0.2,1.8,0.2,1.8
			s-1.6-0.1-2-0.2c-0.1,0-0.1-0.1-0.3-0.2c0.6,0.5,0.2,1.7,0.2,1.7c-0.6,0.1-1.4-0.1-1.4-0.1c-0.2-0.1-0.5-0.4-0.9-1
			c0.3,2.3-0.7,2.3-0.7,2.3c-0.4,0.1-1.1-0.6-1.1-0.6c-0.2-0.2-0.4-0.4-0.6-0.8c0.2,0.9-0.4,1.9-0.4,1.9l-0.6-0.2
			c-0.5-0.3-0.9-0.8-1.2-1.3c0,0.3-0.1,1.8-0.8,1.8l0,0.6c0,0,2.9,0.1,3.5,1.5c0,0,2.1,0.7,2.5,2.3c0,0,1.6,0.5,1.6,1.6l-0.1,0.1
			c0.4,0.2,0.8,0.5,1,1h3.8c-1.5-1.9,1.8-3.3,2.7-1.5c0.1,0.2,0.4-0.1,0.7,0.3c0.4,0.4,2.2,1.2,2.2,2c0,0.7-0.4,1.4-1.1,1.2
			c-0.2-0.1-0.7-0.4-0.7-0.4s0.3,0.2,0.7,0.8c0.4,0.6-0.6,1.4-1.1,1.2c-0.1,0-0.2-0.1-0.2-0.1s0.2,1.7-1.4,1.3
			c-1.6-0.4-1.8-1.7-1.8-1.7l-0.2-0.6c0,0-0.3-0.2-0.4-0.7l-3.5,0c0,0.1,0,0.1,0,0.2c0,0-0.4,0.3-1.1,0.1l0.1,0
			c-0.6,0.7-2.8,0-2.8,0c-0.7,0.2-1.8,0.2-3.3-0.6h0.2c0,0-2.3-0.1-4-2l-0.2-0.2h-2.4c0.2,0.1,0.9,0.7,1,1c0,0,0.3,0.2,0.3,1.1
			c0,0.2,0,0.4-0.3,0.5c5.4,4.8,5.2,7.1,5.2,7.1c-1.2,0.4-3.2-1.9-3.2-1.9l-0.1,0c0.8,2,1.2,4,1.2,4.6c0,0.9-2.2-1.9-2.4-2.2
			c0.4,2.3,0.1,4,0.1,4c-1-0.5-2.1-2.7-2.2-2.8c0.2,2.8-0.3,4.8-0.3,4.8c-1-0.4-1.7-2.7-1.8-3.2c-0.2,3.2-1.2,4.2-1.2,4.2
			c-1-0.8-1.3-2.4-1.4-4.2c0,1.1-1.3,3.2-1.3,3.2c-0.8-1.2-0.8-3.1-0.5-5.1c-0.5,1.7-2.2,3.4-2.2,3.4c-0.4-1.5-0.1-3.4,0.5-5.1
			c-1.2,1.9-3,3-3,3c-0.2-1.3,0.1-2.8,0.6-4.1c-1.1,1.2-2.6,1.6-2.6,1.6c0.2-2.9,5.1-7.2,5.3-7.4c-0.2-0.1-0.2-0.3-0.1-0.4
			c0.2-0.6,0.3-1,0.3-1c0.4-0.4,0.7-0.9,0.8-1l-2.4,0c-1.7,2-4.2,2.2-4.2,2.2H98c-2.1,1.1-3.3,0.7-3.6,0.5c-0.9,0.7-2.6,0.2-2.6,0.2
			l0-0.1c-0.6,0.1-0.9-0.1-0.9-0.1c0-0.1,0.1-0.2,0.1-0.3l0,0.1h-3.5l-0.1,0c0,0.3,0,0.5-0.2,0.7l0.2,0.3c2.9,3.6,2.9,8.4,2.9,8.4
			c-1.7,0.1-2.1-1.6-2.1-1.6c0.4-3.6-1.6-5.9-1.6-5.9l0-0.1c-0.4,0.5-1,1.1-1.1,1.2c-0.2,0.1-0.3,0.4-1.1,0.1
			c-0.8-0.2-0.6-1.4-0.6-1.4c-0.6,0.1-0.4,0.3-1.1-0.2c-0.6-0.4-0.1-1.4-0.1-1.4l0.2-0.1c-1.9,0.4-1.3-1.2-1.3-1.2
			c0.2-0.7,0.6-1.1,1.1-1.4l-0.1,0c0.2-0.6-1.6-0.7-1.6-0.7l-2.2-1.7c0,0-0.2-0.3-0.5-0.7c-0.7-1.4-2.1-1.5-2.1-1.5
			c-3.1,1.4-5.6-1.7-5.6-1.7c0.7-0.5,1.3-0.7,1.9-0.8c-1.7-0.3-2.7-2.2-2.7-2.2c1.4-0.4,2.3-0.4,3.1-0.2l0.8,0.3
			C75.3,61.5,76,63,76,63l0.2,0.4c-0.9,0.2-1.2,0.2-1.2,0.2c0.9,0.6,1.4,1.5,1.4,1.5s0-0.1,0.9,0.4l0.1,0.1
			c-1.1-1.9-2.6-4.7-2.9-5.1c-0.2-0.3-0.3-0.8-0.4-1.4l-0.1,0c-4.2,0.5-4.9-4.8-4.9-4.8c1.9,0.1,3.1,1,3.9,2
			c-1.9-2.7-0.1-6.8-0.1-6.8s1.6,2,1.6,3.9l0.1,0.1c0.4-1.1,1.1-2.3,2.4-3.2c0,0,0.6,2.2-0.5,4.5l0.4,0.4c0.3-0.2,0.6-0.4,1.1-0.7
			c0,0-0.4,5.4-2.5,6.3l-0.1,0c0.3,0.5,0.8,1.2,1.2,1.9l0.8,1.3c0.8,1.3,1.5,2.5,1.5,2.9c0,0-3.2-5.3,1.1-8.1c0,0,0.9,5.5-0.7,7.2
			l1.4,0.6c0,0-1.1-3.4,2.5-6.4c0,0,0.4,2.6,0.1,3.6c0.7-0.9,1.7-1.5,3.1-1.6c0,0-0.7,4.3-3.8,5.3l-0.7,1.1c0,0,1.3,0.8,1.3,1
			c0.6-0.2,1.1-0.2,1.1-0.2c0.3-0.6,0.7-0.8,0.8-0.9c2-1.7,3.1,0.8,2.2,2.1l0.1,0h3.5c0.3-0.5,0.6-0.8,1-1l0-0.1
			c0-1.1,1.6-1.6,1.6-1.6c0.4-1.6,2.5-2.3,2.5-2.3c0.6-1.4,3.5-1.5,3.5-1.5l0.1,0v-0.9c-0.7,0.1-0.8-1.8-0.8-1.8
			c-0.3,0.5-0.7,1-1.2,1.3L96.9,63c0,0-0.6-1-0.4-1.9c-0.2,0.4-0.4,0.6-0.6,0.8c0,0-0.6,0.6-1.1,0.6c0,0-1,0-0.7-2.3
			c-0.4,0.5-0.7,0.8-0.9,1c0,0-0.9,0.2-1.4,0.1c0,0-0.4-1.2,0.1-1.7c-0.1,0.1-0.2,0.2-0.3,0.2c-0.4,0.1-2,0.2-2,0.2
			s-0.2-1.5,0.2-1.8c-0.2,0.1-0.4,0.2-0.5,0.3c0,0-1.2,0.2-1.4,0.2c0,0-0.4-1.3,0.1-1.9c0,0-0.1,0.1-0.1,0.1c0,0-0.6,0.2-1.7,0
			c0,0-0.2-1.6,0.4-1.8c-0.2,0.1-0.3,0.2-0.4,0.2c0,0-0.9,0.1-1.5-0.2c0,0-0.1-1.4,0.7-1.7c-0.2,0.1-0.3,0.1-0.4,0.1
			c0,0-1,0.1-1.7-0.6c0,0,0.1-1,1.2-1.6c-0.2,0-0.4,0-0.5,0c0,0-1.1,0.1-1.8-0.7c0,0,0.1-1.1,1.1-1.6c-0.2,0-0.4,0-0.6,0
			c0,0-1.4-0.4-1.4-0.9c0,0,0.4-1.3,1.3-1.3c-0.4,0-0.7,0-0.8-0.1C81.1,46,81,45.8,81,45.8s0.6-1.2,1.2-1.2c-0.3,0-0.4-0.1-0.4-0.2
			c-0.6-0.4-0.9-0.6-0.9-0.9s0.5-1,1.1-1.1c-0.1,0-0.2-0.1-0.3-0.1c0,0-1-1.3-0.8-1.4c0,0,1-1.2,1.8-1.1c-0.9-0.4-1.4-0.9-1.3-1.3
			c0,0,0.6-0.9,1.6-1c-2.1-1-3.5-1.9-3.4-2.6c0,0,1-0.6,2.1-0.4c-2.5-1.4-4.4-2.8-3.9-3.6c0.6-1.1,2.6,0,2.6,0c-2.7-1.7-4.9-3-4.9-3
			c-0.6-0.6-0.7-1.4-0.7-1.4c11.4,1.6,20.6,13.3,21.2,14c0.6,0.7-0.1,2.1-0.1,2.1c-3,2.2-3.4,8.6,3.8,9.2v-1.2L101.7,50.5
			L101.7,50.5L101.7,50.5z"/>
		<path id="path84"  class="st3" d="M113.2,42.4l-0.1,1.3l1.7,3.5c0.2,0.5,1.8-0.1,1.8-0.1
			c-0.1-3,2.6-4.4,2.6-4.4l0-2.8c0.3-1.6-0.7-1.1-0.7-1.1l-0.1,0.1c0,0-1.7-0.4-1.3-0.8l-0.1,0.1c4.8-7.1,13.4-7.7,13.4-7.7
			c0.1-0.2,0.1-1.6,0.1-2.4c0,0,2.1-1.5,2.3-1.7c0.2-0.2,0.5-0.8,0.5-1.1c0-0.3-0.3-0.8-0.6-1.3c-0.3-0.4-0.5-1.6-0.6-2.1
			c0-0.2,0-0.5-0.2-1c0,0-0.7-1.2-1.9-0.2c0,0-0.4,0.6-0.1,1c0.1,0.3,0.5,1.8,0.5,1.9c-0.6,0.4-1.1,0.6-1.1,0.6c-1.9,1-3.1,2-3.1,2
			v0.2c0,0,0.5,1.1,0.5,1.5c-7.6,1.8-12.7,8.9-12.7,8.9c-0.6,0.5,2.7,2.4,2.7,2.4l-0.1,0c0,0,0.7,0.3,1.3,0c0,0,0.7,0.4,0.7,0.8
			l0,0.1c-2.6,1.6-3.3,3.6-3.4,5C115.3,45.3,113.9,43.5,113.2,42.4C113.2,42.4,113.2,42.4,113.2,42.4z"/>
	</g>
</g>
</svg>
