<?xml version="1.0" encoding="utf-8"?>
<!-- Generator: Adobe Illustrator 19.2.1, SVG Export Plug-In . SVG Version: 6.00 Build 0)  -->
<svg version="1.1" xmlns="http://www.w3.org/2000/svg" xmlns:xlink="http://www.w3.org/1999/xlink" x="0px" y="0px" width="210px"
	 height="150px" viewBox="0 0 210 150" style="enable-background:new 0 0 210 150;" xml:space="preserve">
<style type="text/css">
	.st0{fill:none;}
	.st1{fill:#1A374F;}
	.st2{fill:#F3C463;}
</style>
<g id="Layer_2">
	<rect class="st0" width="210" height="150"/>
	<g id="layer1" transform="translate(-331.5,-470.75)">
		<path id="path7672"  class="st1" d="M436.5,471.3c-11,30.6-30.7,56.9-56.2,76.2v72.8
			c20.6-10.1,39.5-23.2,56.2-38.8c16.6,15.5,35.5,28.7,56.2,38.8v-72.8C467.2,528.2,447.4,501.8,436.5,471.3L436.5,471.3z"/>
		<path id="path7674" class="st2" d="M436.5,491c-11.7,23.8-28.9,44.5-49.7,60.5v15.4
			c19.7-13.6,36.6-30.9,49.7-51c13.1,20,30.1,37.3,49.7,51v-15.4C465.3,535.5,448.2,514.8,436.5,491L436.5,491z"/>
		<path id="path7676" class="st2" d="M436.5,526.7c-13.5,18.7-30.4,34.8-49.7,47.6v14
			c18.8-11.4,35.6-25.8,49.7-42.6c14.2,16.7,30.9,31.1,49.7,42.6v-14C466.9,561.5,450,545.4,436.5,526.7z"/>
		<path id="path7678" class="st2" d="M436.5,555.3c-14.4,15.8-31.2,29.4-49.7,40.3V609
			c18.3-10,35-22.3,49.7-36.8c14.8,14.5,31.4,26.9,49.7,36.8v-13.5C467.6,584.8,450.9,571.2,436.5,555.3z"/>
	</g>
</g>
<g id="Layer_1">
</g>
</svg>
