<?xml version="1.0" encoding="utf-8"?>
<!-- Generator: Adobe Illustrator 19.2.1, SVG Export Plug-In . SVG Version: 6.00 Build 0)  -->
<svg version="1.1" xmlns="http://www.w3.org/2000/svg" xmlns:xlink="http://www.w3.org/1999/xlink" x="0px" y="0px" width="210px"
	 height="150px" viewBox="0 0 210 150" style="enable-background:new 0 0 210 150;" xml:space="preserve">
<style type="text/css">
	.st0{fill:url(#rect3970_1_);stroke:#FFFFFF;stroke-width:7;stroke-linecap:square;}
	.st1{fill:url(#path9214_1_);}
	.st2{fill:url(#use13597_1_);}
	.st3{fill:#4E6471;stroke:#4E6471;stroke-width:0.1;}
	.st4{fill:#C7D7E0;stroke:#C7D7E0;stroke-width:0.1;}
	.st5{fill:url(#rect2193_1_);stroke:#FFFFFF;stroke-width:7;stroke-linecap:square;}
	.st6{fill:url(#path2195_1_);}
	.st7{fill:url(#path2197_1_);}
	.st8{fill:#284350;}
	.st9{fill:#A9BDCB;}
</style>
<g id="Layer_2">
</g>
<g id="Layer_1">
	<g>
		<g id="layer1" transform="translate(0,1.7382812e-5)">
			<g id="g27705">
				<rect id="rect3968" x="24.8" y="0" width="60" height="150"/>
				
					<linearGradient id="rect3970_1_" gradientUnits="userSpaceOnUse" x1="28.9542" y1="-542.2047" x2="97.7391" y2="-364.6389" gradientTransform="matrix(1 0 0 -1 3.544922e-005 -400.3622)">
					<stop  offset="0" style="stop-color:#4E6471"/>
					<stop  offset="0.1196" style="stop-color:#E4F3FB"/>
					<stop  offset="0.3978" style="stop-color:#4E6471"/>
					<stop  offset="0.6204" style="stop-color:#E4F3FB"/>
					<stop  offset="1" style="stop-color:#4E6471"/>
				</linearGradient>
				<rect id="rect3970" x="32.6" y="8.2" class="st0" width="44.4" height="133.6"/>
				
					<linearGradient id="path9214_1_" gradientUnits="userSpaceOnUse" x1="27.3974" y1="-405.4622" x2="82.2974" y2="-405.4622" gradientTransform="matrix(1 0 0 -1 3.544922e-005 -400.3622)">
					<stop  offset="0" style="stop-color:#4E6471"/>
					<stop  offset="1" style="stop-color:#FFFFFF"/>
				</linearGradient>
				<path id="path9214" class="st1" d="M31.6,7.5l-4.2-4.8h54.9l-4.2,4.8C78.1,7.5,31.6,7.5,31.6,7.5z"/>
				
					<linearGradient id="use13597_1_" gradientUnits="userSpaceOnUse" x1="27.3974" y1="-545.5622" x2="82.2974" y2="-545.5622" gradientTransform="matrix(1 0 0 -1 3.544922e-005 -400.3622)">
					<stop  offset="0" style="stop-color:#4E6471"/>
					<stop  offset="1" style="stop-color:#FFFFFF"/>
				</linearGradient>
				<path id="use13597" class="st2" d="M27.4,147.6l4.2-4.8h46.5l4.2,4.8C82.3,147.6,27.4,147.6,27.4,147.6z"/>
				<path id="use13601" class="st3" d="M82.3,147.6l-4.2-4.8V7.5l4.2-4.8V147.6z"/>
				<path id="use14485" class="st4" d="M27.4,2.7l4.2,4.8v135.3l-4.2,4.8V2.7L27.4,2.7z"/>
			</g>
		</g>
		<g id="g2187" transform="translate(334.35013,3.4765624e-5)">
			<g id="g2189">
				<rect id="rect2191" x="-209.2" y="0" width="60" height="150"/>
				
					<linearGradient id="rect2193_1_" gradientUnits="userSpaceOnUse" x1="-539.441" y1="-542.2047" x2="-470.6561" y2="-364.6389" gradientTransform="matrix(1 0 0 -1 334.3502 -400.3622)">
					<stop  offset="0" style="stop-color:#4E6471"/>
					<stop  offset="0.1196" style="stop-color:#E4F3FB"/>
					<stop  offset="0.3978" style="stop-color:#4E6471"/>
					<stop  offset="0.6204" style="stop-color:#E4F3FB"/>
					<stop  offset="1" style="stop-color:#4E6471"/>
				</linearGradient>
				<rect id="rect2193" x="-201.4" y="8.2" class="st5" width="44.4" height="133.6"/>
				
					<linearGradient id="path2195_1_" gradientUnits="userSpaceOnUse" x1="-540.9978" y1="-405.4622" x2="-486.0978" y2="-405.4622" gradientTransform="matrix(1 0 0 -1 334.3502 -400.3622)">
					<stop  offset="0" style="stop-color:#4E6471"/>
					<stop  offset="1" style="stop-color:#FFFFFF"/>
				</linearGradient>
				<path id="path2195" class="st6" d="M-202.4,7.5l-4.2-4.8h54.9l-4.2,4.8C-155.9,7.5-202.4,7.5-202.4,7.5z"/>
				
					<linearGradient id="path2197_1_" gradientUnits="userSpaceOnUse" x1="-540.9978" y1="-545.5622" x2="-486.0978" y2="-545.5622" gradientTransform="matrix(1 0 0 -1 334.3502 -400.3622)">
					<stop  offset="0" style="stop-color:#4E6471"/>
					<stop  offset="1" style="stop-color:#FFFFFF"/>
				</linearGradient>
				<path id="path2197" class="st7" d="M-206.6,147.6l4.2-4.8h46.5l4.2,4.8C-151.7,147.6-206.6,147.6-206.6,147.6z"/>
				<path id="path2199" class="st3" d="M-151.7,147.6l-4.2-4.8V7.5l4.2-4.8V147.6z"/>
				<path id="path2201" class="st4" d="M-206.6,2.7l4.2,4.8v135.3l-4.2,4.8V2.7L-206.6,2.7z"/>
			</g>
		</g>
		<g id="g3028" transform="translate(0,23.437221)">
			<path id="path2260" d="M82.3,10.3v9.6h45.4v-9.6C127.7,10.3,82.3,10.3,82.3,10.3z"/>
			<path id="path2266" class="st8" d="M82.3,13.1V19h45.4v-5.9C127.7,13.1,82.3,13.1,82.3,13.1z"/>
			<path id="path2274" class="st9" d="M82.3,11.3v1.9h45.4v-1.9H82.3z"/>
		</g>
		<g id="g3033" transform="matrix(1,0,0,-1,0,476.56284)">
			<path id="path3035" d="M82.3,360.3v9.6h45.4v-9.6C127.7,360.3,82.3,360.3,82.3,360.3z"/>
			<path id="path3037" class="st8" d="M82.3,363.1v5.9h45.4v-5.9C127.7,363.1,82.3,363.1,82.3,363.1z"/>
			<path id="path3039" class="st9" d="M82.3,361.3v1.9h45.4v-1.9H82.3z"/>
		</g>
	</g>
</g>
</svg>
