<?xml version="1.0" encoding="utf-8"?>
<!-- Generator: Adobe Illustrator 19.2.1, SVG Export Plug-In . SVG Version: 6.00 Build 0)  -->
<svg version="1.1"
	 id="svg2" inkscape:output_extension="org.inkscape.output.svg.inkscape" inkscape:version="0.45.1" sodipodi:docbase="C:\My Pictures\armor" sodipodi:docname="US-OF5.svg" sodipodi:version="0.32" xmlns:cc="http://web.resource.org/cc/" xmlns:dc="http://purl.org/dc/elements/1.1/" xmlns:inkscape="http://www.inkscape.org/namespaces/inkscape" xmlns:rdf="http://www.w3.org/1999/02/22-rdf-syntax-ns#" xmlns:sodipodi="http://sodipodi.sourceforge.net/DTD/sodipodi-0.dtd" xmlns:svg="http://www.w3.org/2000/svg"
	 xmlns="http://www.w3.org/2000/svg" xmlns:xlink="http://www.w3.org/1999/xlink" x="0px" y="0px" width="210px" height="150px"
	 viewBox="0 0 210 150" style="enable-background:new 0 0 210 150;" xml:space="preserve">
<style type="text/css">
	.st0{fill:#CC9900;}
	.st1{fill:url(#path5156_1_);}
	.st2{fill:url(#path3143_2_);}
	.st3{fill:url(#path4126_2_);}
	.st4{fill:url(#path4130_1_);}
	.st5{fill:url(#path4136_1_);}
	.st6{fill:url(#path9168_1_);}
	.st7{fill:url(#path4152_1_);}
	.st8{fill:url(#path5178_1_);}
	.st9{fill:url(#path5190_1_);}
	.st10{fill:url(#path7220_1_);}
	.st11{fill:url(#path10153_1_);}
	.st12{fill:url(#path12109_1_);}
	.st13{fill:url(#path13088_1_);}
	.st14{fill:url(#path13100_1_);}
	.st15{fill:url(#path13110_1_);}
	.st16{fill:url(#path15058_1_);}
</style>
<sodipodi:namedview  bordercolor="#666666" borderopacity="1.0" gridtolerance="10000" guidetolerance="10" id="base" inkscape:current-layer="layer2" inkscape:cx="184.27785" inkscape:cy="220.86721" inkscape:document-units="px" inkscape:pageopacity="0.0" inkscape:pageshadow="2" inkscape:window-height="712" inkscape:window-width="1024" inkscape:window-x="1020" inkscape:window-y="-4" inkscape:zoom="0.70710678" objecttolerance="10" pagecolor="#ffffff">
	</sodipodi:namedview>
<g id="layer2" transform="translate(-148.81543,-239.25468)" inkscape:groupmode="layer" inkscape:label="border" sodipodi:insensitive="true">
	<g id="g7150" transform="translate(41.297317,-8.2854573)">
		<path id="path2170_1_" sodipodi:nodetypes="cccccccccccccccccc" class="st0" d="M200.3,393.4c5.1,5.1,14.5,5.6,21.2,0.8
			c1.2-8,2.1-16,1.5-24.8c13.2,6.8,17.4,8.3,33.7,6.1c2.8-8.1,3.3-16.8,2-25.9c10.9-1.7,19.5-6.8,25.4-15.9
			c-4.8-14-7.7-17.1-16.5-27.2c3.4-11.3,4.5-16.5,3.5-28.2c-14.5-5.7-18.8-6.1-35.7-5c-6.9-15.4-10.2-17.4-21.6-25.7
			c-16.4,13.3-18.4,12.4-28.6,29c-16.5-0.7-20.6-2-35.6,5.1c2.8,13.3,2.1,15.3,8.6,29.6c-9.4,10.2-13.1,11.4-17,25.4
			c8.9,6.3,12.8,9.9,25.9,13.2c-1,6.7-2.1,15.3,5.4,25.2c14.3-0.3,15.4,1.1,33.8-4.8C204.5,378.2,202.4,385.9,200.3,393.4z"/>
		
			<radialGradient id="path5156_1_" cx="402.274" cy="-356.6563" r="71.4597" gradientTransform="matrix(0.2645 -2.322311e-002 -2.877013e-002 -0.3277 130.723 166.823)" gradientUnits="userSpaceOnUse">
			<stop  offset="0" style="stop-color:#E9DE94"/>
			<stop  offset="1" style="stop-color:#E9DE94;stop-opacity:0"/>
		</radialGradient>
		<path id="path5156" sodipodi:nodetypes="cccccccccccccccccc" class="st1" d="M200.3,393.4c5.1,5.1,14.5,5.6,21.2,0.8
			c1.2-8,2.1-16,1.5-24.8c13.2,6.8,17.4,8.3,33.7,6.1c2.8-8.1,3.3-16.8,2-25.9c10.9-1.7,19.5-6.8,25.4-15.9
			c-4.8-14-7.7-17.1-16.5-27.2c3.4-11.3,4.5-16.5,3.5-28.2c-14.5-5.7-18.8-6.1-35.7-5c-6.9-15.4-10.2-17.4-21.6-25.7
			c-16.4,13.3-18.4,12.4-28.6,29c-16.5-0.7-20.6-2-35.6,5.1c2.8,13.3,2.1,15.3,8.6,29.6c-9.4,10.2-13.1,11.4-17,25.4
			c8.9,6.3,12.8,9.9,25.9,13.2c-1,6.7-2.1,15.3,5.4,25.2c14.3-0.3,15.4,1.1,33.8-4.8C204.5,378.2,202.4,385.9,200.3,393.4z"/>
		
			<radialGradient id="path3143_2_" cx="491.8026" cy="210.838" r="71.4597" gradientTransform="matrix(-0.729 -2.972218e-002 -2.033062e-002 0.4987 635.9238 246.7307)" gradientUnits="userSpaceOnUse">
			<stop  offset="0" style="stop-color:#865100"/>
			<stop  offset="1" style="stop-color:#865100;stop-opacity:0"/>
		</radialGradient>
		<path id="path3143_1_" sodipodi:nodetypes="ccccccccccc" class="st2" d="M200.3,393.4c5.1,5.1,14.5,5.6,21.2,0.8
			c1.2-8,2.1-16,1.5-24.8c13.2,6.8,17.4,8.3,33.7,6.1c2.8-8.1,3.3-16.8,2-25.9c10.9-1.7,19.5-6.8,25.4-15.9l-142.9,3
			c8.9,6.3,12.8,9.9,25.9,13.2c-1,6.7-2.1,15.3,5.4,25.2c14.3-0.3,15.4,1.1,33.8-4.8C204.5,378.2,202.4,385.9,200.3,393.4z"/>
		
			<radialGradient id="path4126_2_" cx="531.6667" cy="319.5352" r="71.4597" gradientTransform="matrix(-0.4129 -2.709555e-002 -2.107056e-002 0.3211 439.5167 304.5531)" gradientUnits="userSpaceOnUse">
			<stop  offset="0" style="stop-color:#865100"/>
			<stop  offset="1" style="stop-color:#865100;stop-opacity:0"/>
		</radialGradient>
		<path id="path4126_1_" sodipodi:nodetypes="ccccc" class="st3" d="M200.3,393.4c5.1,5.1,14.5,5.6,21.2,0.8c1.2-8,2.1-16,1.5-24.8
			l-16.8,0.9C204.5,378.2,202.4,385.9,200.3,393.4z"/>
		
			<radialGradient id="path4130_1_" cx="664.7453" cy="434.4451" r="71.4597" gradientTransform="matrix(-0.7289 3.317422e-002 1.202121e-002 0.2641 633.6256 203.632)" gradientUnits="userSpaceOnUse">
			<stop  offset="0" style="stop-color:#865100"/>
			<stop  offset="1" style="stop-color:#865100;stop-opacity:0"/>
		</radialGradient>
		<path id="path4130" sodipodi:nodetypes="ccccccccccc" class="st4" d="M200.3,393.4c5.1,5.1,14.5,5.6,21.2,0.8
			c1.2-8,2.1-16,1.5-24.8c13.2,6.8,17.4,8.3,33.7,6.1c2.8-8.1,3.3-16.8,2-25.9c10.9-1.7,19.5-6.8,25.4-15.9l-142.9,3
			c8.9,6.3,12.8,9.9,25.9,13.2c-1,6.7-2.1,15.3,5.4,25.2c14.3-0.3,15.4,1.1,33.8-4.8C204.5,378.2,202.4,385.9,200.3,393.4z"/>
		
			<radialGradient id="path4136_1_" cx="316.3766" cy="-339.3864" r="71.4597" gradientTransform="matrix(0.4532 -4.609931e-002 -3.328577e-002 -0.3273 11.8444 181.277)" gradientUnits="userSpaceOnUse">
			<stop  offset="0" style="stop-color:#E9DE94"/>
			<stop  offset="1" style="stop-color:#E9DE94;stop-opacity:0"/>
		</radialGradient>
		<path id="path4136" sodipodi:nodetypes="cccccccccccccccccc" class="st5" d="M200.3,393.4c5.1,5.1,14.5,5.6,21.2,0.8
			c1.2-8,2.1-16,1.5-24.8c13.2,6.8,17.4,8.3,33.7,6.1c2.8-8.1,3.3-16.8,2-25.9c10.9-1.7,19.5-6.8,25.4-15.9
			c-4.8-14-7.7-17.1-16.5-27.2c3.4-11.3,4.5-16.5,3.5-28.2c-14.5-5.7-18.8-6.1-35.7-5c-6.9-15.4-10.2-17.4-21.6-25.7
			c-16.4,13.3-18.4,12.4-28.6,29c-16.5-0.7-20.6-2-35.6,5.1c2.8,13.3,2.1,15.3,8.6,29.6c-9.4,10.2-13.1,11.4-17,25.4
			c8.9,6.3,12.8,9.9,25.9,13.2c-1,6.7-2.1,15.3,5.4,25.2c14.3-0.3,15.4,1.1,33.8-4.8C204.5,378.2,202.4,385.9,200.3,393.4z"/>
		
			<radialGradient id="path9168_1_" cx="292.2756" cy="-438.1382" r="71.4597" gradientTransform="matrix(0.4532 -4.609931e-002 -3.328577e-002 -0.3273 11.8444 181.277)" gradientUnits="userSpaceOnUse">
			<stop  offset="0" style="stop-color:#D9BD55"/>
			<stop  offset="1" style="stop-color:#D9BD55;stop-opacity:0"/>
		</radialGradient>
		<path id="path9168" sodipodi:nodetypes="cccccccccccccccccc" class="st6" d="M200.3,393.4c5.1,5.1,14.5,5.6,21.2,0.8
			c1.2-8,2.1-16,1.5-24.8c13.2,6.8,17.4,8.3,33.7,6.1c2.8-8.1,3.3-16.8,2-25.9c10.9-1.7,19.5-6.8,25.4-15.9
			c-4.8-14-7.7-17.1-16.5-27.2c3.4-11.3,4.5-16.5,3.5-28.2c-14.5-5.7-18.8-6.1-35.7-5c-6.9-15.4-10.2-17.4-21.6-25.7
			c-16.4,13.3-18.4,12.4-28.6,29c-16.5-0.7-20.6-2-35.6,5.1c2.8,13.3,2.1,15.3,8.6,29.6c-9.4,10.2-13.1,11.4-17,25.4
			c8.9,6.3,12.8,9.9,25.9,13.2c-1,6.7-2.1,15.3,5.4,25.2c14.3-0.3,15.4,1.1,33.8-4.8C204.5,378.2,202.4,385.9,200.3,393.4z"/>
	</g>
</g>
<g id="layer1" transform="translate(-148.81543,-239.25468)" inkscape:groupmode="layer" inkscape:label="Upper" sodipodi:insensitive="true">
	
		<linearGradient id="path4152_1_" gradientUnits="userSpaceOnUse" x1="310.292" y1="29.9492" x2="418.6227" y2="112.4896" gradientTransform="matrix(1 0 0 -1 -108.7576 382.6876)">
		<stop  offset="0" style="stop-color:#C38C00"/>
		<stop  offset="0.25" style="stop-color:#E9DE94"/>
		<stop  offset="0.5" style="stop-color:#C38C00"/>
		<stop  offset="0.75" style="stop-color:#E9DE94"/>
		<stop  offset="1" style="stop-color:#C38C00"/>
	</linearGradient>
	<path id="path4152" sodipodi:nodetypes="cccccccccccccccccc" class="st7" d="M243.1,384.7c4.9,4.3,11.6,4.8,18,0.8
		c1.1-7.7,1.5-19,1-27.4c12.7,6.5,18.7,10.1,34.4,7.9c2.7-7.8,2.6-17.2,1.3-26.1c10.5-1.6,20.2-5.9,26-14.7
		c-4.6-13.5-8.4-16.9-16.9-26.6c3.3-10.9,4.5-16.2,3.6-27.4c-14-5.5-18.6-5.4-34.9-4.4c-6.7-14.9-9.8-17.6-20.8-25.7
		c-15.8,12.8-17.7,12.9-27.5,28.8c-15.9-0.6-20.4-2.5-34.8,4.3c2.7,12.8,2.6,15.4,8.8,29.2c-9,9.9-13.3,11.6-17,25.2
		c8.6,6.1,12.8,8.6,25.4,11.8c-0.9,6.5-2.7,15.4,4.5,24.9c13.8-0.3,17.8-0.2,35.5-5.8C247.9,367.3,245.1,377.4,243.1,384.7z"/>
</g>
<g id="layer5" inkscape:groupmode="layer" inkscape:label="Shadows" sodipodi:insensitive="true">
	
		<linearGradient id="path5178_1_" gradientUnits="userSpaceOnUse" x1="200.7399" y1="-201.2602" x2="212.4852" y2="-203.9317" gradientTransform="matrix(1 0 0 -1 -106.6386 -95.6082)">
		<stop  offset="0" style="stop-color:#824B00"/>
		<stop  offset="1" style="stop-color:#B07B00"/>
	</linearGradient>
	<path id="path5178" sodipodi:nodetypes="cccc" class="st8" d="M107.2,83.2l-5.7,35.5c-15.4,4.7-17.9,6.1-34.5,6.3
		C70.5,110.6,101.5,86.2,107.2,83.2z"/>
	
		<linearGradient id="path5190_1_" gradientUnits="userSpaceOnUse" x1="153.4978" y1="-184.8964" x2="213.4987" y2="-184.8964" gradientTransform="matrix(1 0 0 -1 -106.6386 -95.6082)">
		<stop  offset="0" style="stop-color:#DEAB2D"/>
		<stop  offset="1" style="stop-color:#824B00"/>
	</linearGradient>
	<path id="path5190" sodipodi:nodetypes="cccc" class="st9" d="M36.7,88.9c24.1-9.8,32.6-14,70-7.8c-22.8,7-23.6,6.5-44.3,19.3
		C52.9,97.5,44.1,94,36.7,88.9z"/>
	
		<linearGradient id="path7220_1_" gradientUnits="userSpaceOnUse" x1="78.1074" y1="100.2161" x2="72.8383" y2="85.9123" gradientTransform="matrix(1 0 0 -1 0 152)">
		<stop  offset="0" style="stop-color:#DEAB2D"/>
		<stop  offset="1" style="stop-color:#824B00"/>
	</linearGradient>
	<path id="path7220" sodipodi:nodetypes="cccc" class="st10" d="M53.6,64c-6.1-12-5.8-17-8.6-28.3c26.9,13.1,31,11.4,62.1,43.7
		C76.7,67.2,79.9,69.1,53.6,64z"/>
	
		<linearGradient id="path10153_1_" gradientUnits="userSpaceOnUse" x1="63.3676" y1="149.7077" x2="106.0113" y2="74.0876" gradientTransform="matrix(1 0 0 -1 0 152)">
		<stop  offset="0" style="stop-color:#824B00"/>
		<stop  offset="0.5" style="stop-color:#DEAB2D"/>
		<stop  offset="1" style="stop-color:#824B00"/>
	</linearGradient>
	<path id="path10153" sodipodi:nodetypes="cccc" class="st11" d="M107.4,78.7C97,60.9,87,45.7,78.1,31.8l1.6,0
		C91,46.6,97.1,58.4,107.4,78.7z"/>
	
		<linearGradient id="path12109_1_" gradientUnits="userSpaceOnUse" x1="126.0981" y1="110.5378" x2="110.2919" y2="110.5378" gradientTransform="matrix(1 0 0 -1 0 152)">
		<stop  offset="0" style="stop-color:#DEAB2D"/>
		<stop  offset="1" style="stop-color:#824B00"/>
	</linearGradient>
	<path id="path12109" sodipodi:nodetypes="cccc" class="st12" d="M106.4,3.4c7.5,5.2,14.1,11,19.7,24.7
		c-4.9,17.1-11.1,34.3-17.9,51.4C105.3,53.9,106.9,28.8,106.4,3.4z"/>
	
		<linearGradient id="path13088_1_" gradientUnits="userSpaceOnUse" x1="147.589" y1="81.1063" x2="138.5152" y2="91.2697" gradientTransform="matrix(1 0 0 -1 0 152)">
		<stop  offset="0" style="stop-color:#DEAB2D"/>
		<stop  offset="1" style="stop-color:#824B00"/>
	</linearGradient>
	<path id="path13088" sodipodi:nodetypes="cccc" class="st13" d="M108.3,80.1c15.8-7.8,23.5-10.8,49.3-21.8
		c2.9-8.4,3.3-16.8,3.6-25.2C143.2,48.5,124.2,63.8,108.3,80.1z"/>
	
		<linearGradient id="path13100_1_" gradientUnits="userSpaceOnUse" x1="177.0739" y1="58.3135" x2="115.6798" y2="66.2027" gradientTransform="matrix(1 0 0 -1 0 152)">
		<stop  offset="0" style="stop-color:#DEAB2D"/>
		<stop  offset="1" style="stop-color:#824B00"/>
	</linearGradient>
	<path id="path13100" sodipodi:nodetypes="cccc" class="st14" d="M109.2,81c31.4-5.5,28.1-1,64.3,4.9c-5.1,8.5-14.9,12.1-24.8,13.9
		C136.3,91.8,134,90.8,109.2,81z"/>
	
		<linearGradient id="path13110_1_" gradientUnits="userSpaceOnUse" x1="126.5061" y1="46.6525" x2="115.355" y2="37.3473" gradientTransform="matrix(1 0 0 -1 0 152)">
		<stop  offset="0" style="stop-color:#824B00"/>
		<stop  offset="1" style="stop-color:#B07B00"/>
	</linearGradient>
	<path id="path13110" sodipodi:nodetypes="cccc" class="st15" d="M146.4,125.7c-12.2,1.5-22.5-1.9-31.5-8.7
		c-0.6-11.1-1.5-19.3-6.5-33.4C126.4,99.6,134.9,110.9,146.4,125.7z"/>
	
		<linearGradient id="path15058_1_" gradientUnits="userSpaceOnUse" x1="86.7901" y1="6.1154" x2="110.3754" y2="6.119" gradientTransform="matrix(1 0 0 -1 0 152)">
		<stop  offset="0" style="stop-color:#824B00"/>
		<stop  offset="0.5" style="stop-color:#DEAB2D"/>
		<stop  offset="1" style="stop-color:#824B00"/>
	</linearGradient>
	<path id="path15058" sodipodi:nodetypes="ccc" class="st16" d="M94.7,145.4c2.8-4.3,19.4-2.7,18,0.8C107.6,150,98.7,150,94.7,145.4
		z"/>
</g>
</svg>
